<svg width="169" height="22" viewBox="0 0 121 13" fill="none" xmlns="http://www.w3.org/2000/svg">
<path d="M1.488 2.356C1.28 2.356 1.104 2.284 0.96 2.14C0.816 1.996 0.744 1.82 0.744 1.612C0.744 1.404 0.816 1.228 0.96 1.084C1.104 0.94 1.28 0.868 1.488 0.868C1.688 0.868 1.856 0.94 1.992 1.084C2.136 1.228 2.208 1.404 2.208 1.612C2.208 1.82 2.136 1.996 1.992 2.14C1.856 2.284 1.688 2.356 1.488 2.356ZM2.016 3.424V10H0.924V3.424H2.016ZM7.08113 3.304C7.88113 3.304 8.52913 3.548 9.02513 4.036C9.52113 4.516 9.76913 5.212 9.76913 6.124V10H8.68913V6.28C8.68913 5.624 8.52513 5.124 8.19713 4.78C7.86913 4.428 7.42113 4.252 6.85313 4.252C6.27713 4.252 5.81713 4.432 5.47313 4.792C5.13713 5.152 4.96913 5.676 4.96913 6.364V10H3.87713V3.424H4.96913V4.36C5.18513 4.024 5.47713 3.764 5.84513 3.58C6.22113 3.396 6.63313 3.304 7.08113 3.304ZM14.2289 4.324H12.8489V10H11.7569V4.324H10.9049V3.424H11.7569V2.956C11.7569 2.22 11.9449 1.684 12.3209 1.348C12.7049 1.004 13.3169 0.831999 14.1569 0.831999V1.744C13.6769 1.744 13.3369 1.84 13.1369 2.032C12.9449 2.216 12.8489 2.524 12.8489 2.956V3.424H14.2289V4.324ZM18.3701 10.108C17.7541 10.108 17.1941 9.968 16.6901 9.688C16.1941 9.408 15.8021 9.012 15.5141 8.5C15.2341 7.98 15.0941 7.38 15.0941 6.7C15.0941 6.028 15.2381 5.436 15.5261 4.924C15.8221 4.404 16.2221 4.008 16.7261 3.736C17.2301 3.456 17.7941 3.316 18.4181 3.316C19.0421 3.316 19.6061 3.456 20.1101 3.736C20.6141 4.008 21.0101 4.4 21.2981 4.912C21.5941 5.424 21.7421 6.02 21.7421 6.7C21.7421 7.38 21.5901 7.98 21.2861 8.5C20.9901 9.012 20.5861 9.408 20.0741 9.688C19.5621 9.968 18.9941 10.108 18.3701 10.108ZM18.3701 9.148C18.7621 9.148 19.1301 9.056 19.4741 8.872C19.8181 8.688 20.0941 8.412 20.3021 8.044C20.5181 7.676 20.6261 7.228 20.6261 6.7C20.6261 6.172 20.5221 5.724 20.3141 5.356C20.1061 4.988 19.8341 4.716 19.4981 4.54C19.1621 4.356 18.7981 4.264 18.4061 4.264C18.0061 4.264 17.6381 4.356 17.3021 4.54C16.9741 4.716 16.7101 4.988 16.5101 5.356C16.3101 5.724 16.2101 6.172 16.2101 6.7C16.2101 7.236 16.3061 7.688 16.4981 8.056C16.6981 8.424 16.9621 8.7 17.2901 8.884C17.6181 9.06 17.9781 9.148 18.3701 9.148ZM29.1779 2.308C30.0659 2.308 30.8379 2.476 31.4939 2.812C32.1499 3.148 32.6539 3.62 33.0059 4.228C33.3579 4.828 33.5339 5.524 33.5339 6.316C33.5339 6.948 33.4299 7.556 33.2219 8.14C33.0139 8.716 32.7099 9.184 32.3099 9.544C31.9179 9.904 31.4579 10.084 30.9299 10.084C30.5299 10.084 30.2219 9.984 30.0059 9.784C29.7899 9.584 29.6659 9.312 29.6339 8.968C29.3859 9.312 29.0699 9.584 28.6859 9.784C28.3099 9.984 27.9099 10.084 27.4859 10.084C26.8779 10.084 26.3979 9.9 26.0459 9.532C25.7019 9.156 25.5299 8.652 25.5299 8.02C25.5299 7.42 25.6539 6.86 25.9019 6.34C26.1579 5.82 26.5099 5.404 26.9579 5.092C27.4059 4.772 27.9139 4.612 28.4819 4.612C29.2419 4.612 29.7539 4.9 30.0179 5.476L30.1499 4.732H31.0979L30.4979 8.2C30.4739 8.352 30.4619 8.492 30.4619 8.62C30.4619 9.1 30.6739 9.34 31.0979 9.34C31.4179 9.34 31.6939 9.188 31.9259 8.884C32.1659 8.58 32.3459 8.2 32.4659 7.744C32.5859 7.28 32.6459 6.824 32.6459 6.376C32.6459 5.328 32.3299 4.516 31.6979 3.94C31.0739 3.364 30.1899 3.076 29.0459 3.076C28.0939 3.076 27.2339 3.308 26.4659 3.772C25.7059 4.228 25.1099 4.856 24.6779 5.656C24.2459 6.456 24.0299 7.34 24.0299 8.308C24.0219 9.364 24.3379 10.176 24.9779 10.744C25.6179 11.32 26.5059 11.608 27.6419 11.608C28.3939 11.608 29.0579 11.472 29.6339 11.2L29.7779 11.944C29.0659 12.24 28.2819 12.388 27.4259 12.388C26.5699 12.388 25.8139 12.224 25.1579 11.896C24.5099 11.576 24.0059 11.112 23.6459 10.504C23.2939 9.904 23.1179 9.204 23.1179 8.404C23.1179 7.276 23.3779 6.248 23.8979 5.32C24.4179 4.384 25.1379 3.648 26.0579 3.112C26.9859 2.576 28.0259 2.308 29.1779 2.308ZM27.8099 9.232C28.1699 9.232 28.5019 9.128 28.8059 8.92C29.1099 8.704 29.3499 8.416 29.5259 8.056C29.7019 7.688 29.7899 7.288 29.7899 6.856C29.7899 6.44 29.6739 6.104 29.4419 5.848C29.2179 5.584 28.8979 5.452 28.4819 5.452C28.0979 5.452 27.7579 5.568 27.4619 5.8C27.1739 6.024 26.9499 6.324 26.7899 6.7C26.6299 7.068 26.5499 7.452 26.5499 7.852C26.5499 8.276 26.6579 8.612 26.8739 8.86C27.0899 9.108 27.4019 9.232 27.8099 9.232ZM38.5343 3.304C39.3343 3.304 39.9823 3.548 40.4783 4.036C40.9743 4.516 41.2223 5.212 41.2223 6.124V10H40.1423V6.28C40.1423 5.624 39.9783 5.124 39.6503 4.78C39.3223 4.428 38.8743 4.252 38.3063 4.252C37.7303 4.252 37.2703 4.432 36.9263 4.792C36.5903 5.152 36.4223 5.676 36.4223 6.364V10H35.3303V3.424H36.4223V4.36C36.6383 4.024 36.9303 3.764 37.2983 3.58C37.6743 3.396 38.0863 3.304 38.5343 3.304ZM44.098 1.12V10H43.006V1.12H44.098ZM51.9592 6.46C51.9592 6.668 51.9472 6.888 51.9232 7.12H46.6672C46.7072 7.768 46.9272 8.276 47.3272 8.644C47.7352 9.004 48.2272 9.184 48.8032 9.184C49.2752 9.184 49.6672 9.076 49.9792 8.86C50.2992 8.636 50.5232 8.34 50.6512 7.972H51.8272C51.6512 8.604 51.2992 9.12 50.7712 9.52C50.2432 9.912 49.5872 10.108 48.8032 10.108C48.1792 10.108 47.6192 9.968 47.1232 9.688C46.6352 9.408 46.2512 9.012 45.9712 8.5C45.6912 7.98 45.5512 7.38 45.5512 6.7C45.5512 6.02 45.6872 5.424 45.9592 4.912C46.2312 4.4 46.6112 4.008 47.0992 3.736C47.5952 3.456 48.1632 3.316 48.8032 3.316C49.4272 3.316 49.9792 3.452 50.4592 3.724C50.9392 3.996 51.3072 4.372 51.5632 4.852C51.8272 5.324 51.9592 5.86 51.9592 6.46ZM50.8312 6.232C50.8312 5.816 50.7392 5.46 50.5552 5.164C50.3712 4.86 50.1192 4.632 49.7992 4.48C49.4872 4.32 49.1392 4.24 48.7552 4.24C48.2032 4.24 47.7312 4.416 47.3392 4.768C46.9552 5.12 46.7352 5.608 46.6792 6.232H50.8312ZM55.7286 10.108C55.2246 10.108 54.7726 10.024 54.3726 9.856C53.9726 9.68 53.6566 9.44 53.4246 9.136C53.1926 8.824 53.0646 8.468 53.0406 8.068H54.1686C54.2006 8.396 54.3526 8.664 54.6246 8.872C54.9046 9.08 55.2686 9.184 55.7166 9.184C56.1326 9.184 56.4606 9.092 56.7006 8.908C56.9406 8.724 57.0606 8.492 57.0606 8.212C57.0606 7.924 56.9326 7.712 56.6766 7.576C56.4206 7.432 56.0246 7.292 55.4886 7.156C55.0006 7.028 54.6006 6.9 54.2886 6.772C53.9846 6.636 53.7206 6.44 53.4966 6.184C53.2806 5.92 53.1726 5.576 53.1726 5.152C53.1726 4.816 53.2726 4.508 53.4726 4.228C53.6726 3.948 53.9566 3.728 54.3246 3.568C54.6926 3.4 55.1126 3.316 55.5846 3.316C56.3126 3.316 56.9006 3.5 57.3486 3.868C57.7966 4.236 58.0366 4.74 58.0686 5.38H56.9766C56.9526 5.036 56.8126 4.76 56.5566 4.552C56.3086 4.344 55.9726 4.24 55.5486 4.24C55.1566 4.24 54.8446 4.324 54.6126 4.492C54.3806 4.66 54.2646 4.88 54.2646 5.152C54.2646 5.368 54.3326 5.548 54.4686 5.692C54.6126 5.828 54.7886 5.94 54.9966 6.028C55.2126 6.108 55.5086 6.2 55.8846 6.304C56.3566 6.432 56.7406 6.56 57.0366 6.688C57.3326 6.808 57.5846 6.992 57.7926 7.24C58.0086 7.488 58.1206 7.812 58.1286 8.212C58.1286 8.572 58.0286 8.896 57.8286 9.184C57.6286 9.472 57.3446 9.7 56.9766 9.868C56.6166 10.028 56.2006 10.108 55.7286 10.108ZM61.9981 10.108C61.4941 10.108 61.0421 10.024 60.6421 9.856C60.2421 9.68 59.9261 9.44 59.6941 9.136C59.4621 8.824 59.3341 8.468 59.3101 8.068H60.4381C60.4701 8.396 60.6221 8.664 60.8941 8.872C61.1741 9.08 61.5381 9.184 61.9861 9.184C62.4021 9.184 62.7301 9.092 62.9701 8.908C63.2101 8.724 63.3301 8.492 63.3301 8.212C63.3301 7.924 63.2021 7.712 62.9461 7.576C62.6901 7.432 62.2941 7.292 61.7581 7.156C61.2701 7.028 60.8701 6.9 60.5581 6.772C60.2541 6.636 59.9901 6.44 59.7661 6.184C59.5501 5.92 59.4421 5.576 59.4421 5.152C59.4421 4.816 59.5421 4.508 59.7421 4.228C59.9421 3.948 60.2261 3.728 60.5941 3.568C60.9621 3.4 61.3821 3.316 61.8541 3.316C62.5821 3.316 63.1701 3.5 63.6181 3.868C64.0661 4.236 64.3061 4.74 64.3381 5.38H63.2461C63.2221 5.036 63.0821 4.76 62.8261 4.552C62.5781 4.344 62.2421 4.24 61.8181 4.24C61.4261 4.24 61.1141 4.324 60.8821 4.492C60.6501 4.66 60.5341 4.88 60.5341 5.152C60.5341 5.368 60.6021 5.548 60.7381 5.692C60.8821 5.828 61.0581 5.94 61.2661 6.028C61.4821 6.108 61.7781 6.2 62.1541 6.304C62.6261 6.432 63.0101 6.56 63.3061 6.688C63.6021 6.808 63.8541 6.992 64.0621 7.24C64.2781 7.488 64.3901 7.812 64.3981 8.212C64.3981 8.572 64.2981 8.896 64.0981 9.184C63.8981 9.472 63.6141 9.7 63.2461 9.868C62.8861 10.028 62.4701 10.108 61.9981 10.108ZM67.2716 4.324V8.2C67.2716 8.52 67.3396 8.748 67.4756 8.884C67.6116 9.012 67.8476 9.076 68.1836 9.076H68.9876V10H68.0036C67.3956 10 66.9396 9.86 66.6356 9.58C66.3316 9.3 66.1796 8.84 66.1796 8.2V4.324H65.3276V3.424H66.1796V1.768H67.2716V3.424H68.9876V4.324H67.2716ZM76.3107 6.46C76.3107 6.668 76.2987 6.888 76.2747 7.12H71.0187C71.0587 7.768 71.2787 8.276 71.6787 8.644C72.0867 9.004 72.5787 9.184 73.1547 9.184C73.6267 9.184 74.0187 9.076 74.3307 8.86C74.6507 8.636 74.8747 8.34 75.0027 7.972H76.1787C76.0027 8.604 75.6507 9.12 75.1227 9.52C74.5947 9.912 73.9387 10.108 73.1547 10.108C72.5307 10.108 71.9707 9.968 71.4747 9.688C70.9867 9.408 70.6027 9.012 70.3227 8.5C70.0427 7.98 69.9027 7.38 69.9027 6.7C69.9027 6.02 70.0387 5.424 70.3107 4.912C70.5827 4.4 70.9627 4.008 71.4507 3.736C71.9467 3.456 72.5147 3.316 73.1547 3.316C73.7787 3.316 74.3307 3.452 74.8107 3.724C75.2907 3.996 75.6587 4.372 75.9147 4.852C76.1787 5.324 76.3107 5.86 76.3107 6.46ZM75.1827 6.232C75.1827 5.816 75.0907 5.46 74.9067 5.164C74.7227 4.86 74.4707 4.632 74.1507 4.48C73.8387 4.32 73.4907 4.24 73.1067 4.24C72.5547 4.24 72.0827 4.416 71.6907 4.768C71.3067 5.12 71.0867 5.608 71.0307 6.232H75.1827ZM77.3441 6.7C77.3441 6.02 77.4801 5.428 77.7521 4.924C78.0241 4.412 78.4001 4.016 78.8801 3.736C79.3681 3.456 79.9241 3.316 80.5481 3.316C81.3561 3.316 82.0201 3.512 82.5401 3.904C83.0681 4.296 83.4161 4.84 83.5841 5.536H82.4081C82.2961 5.136 82.0761 4.82 81.7481 4.588C81.4281 4.356 81.0281 4.24 80.5481 4.24C79.9241 4.24 79.4201 4.456 79.0361 4.888C78.6521 5.312 78.4601 5.916 78.4601 6.7C78.4601 7.492 78.6521 8.104 79.0361 8.536C79.4201 8.968 79.9241 9.184 80.5481 9.184C81.0281 9.184 81.4281 9.072 81.7481 8.848C82.0681 8.624 82.2881 8.304 82.4081 7.888H83.5841C83.4081 8.56 83.0561 9.1 82.5281 9.508C82.0001 9.908 81.3401 10.108 80.5481 10.108C79.9241 10.108 79.3681 9.968 78.8801 9.688C78.4001 9.408 78.0241 9.012 77.7521 8.5C77.4801 7.988 77.3441 7.388 77.3441 6.7ZM88.3052 3.304C88.8012 3.304 89.2492 3.412 89.6492 3.628C90.0492 3.836 90.3612 4.152 90.5852 4.576C90.8172 5 90.9332 5.516 90.9332 6.124V10H89.8532V6.28C89.8532 5.624 89.6892 5.124 89.3612 4.78C89.0332 4.428 88.5852 4.252 88.0172 4.252C87.4412 4.252 86.9812 4.432 86.6372 4.792C86.3012 5.152 86.1332 5.676 86.1332 6.364V10H85.0412V1.12H86.1332V4.36C86.3492 4.024 86.6452 3.764 87.0212 3.58C87.4052 3.396 87.8332 3.304 88.3052 3.304ZM93.065 10.072C92.857 10.072 92.681 10 92.537 9.856C92.393 9.712 92.321 9.536 92.321 9.328C92.321 9.12 92.393 8.944 92.537 8.8C92.681 8.656 92.857 8.584 93.065 8.584C93.265 8.584 93.433 8.656 93.569 8.8C93.713 8.944 93.785 9.12 93.785 9.328C93.785 9.536 93.713 9.712 93.569 9.856C93.433 10 93.265 10.072 93.065 10.072ZM94.8285 6.7C94.8285 6.02 94.9645 5.428 95.2365 4.924C95.5085 4.412 95.8845 4.016 96.3645 3.736C96.8525 3.456 97.4085 3.316 98.0325 3.316C98.8405 3.316 99.5045 3.512 100.025 3.904C100.553 4.296 100.901 4.84 101.069 5.536H99.8925C99.7805 5.136 99.5605 4.82 99.2325 4.588C98.9125 4.356 98.5125 4.24 98.0325 4.24C97.4085 4.24 96.9045 4.456 96.5205 4.888C96.1365 5.312 95.9445 5.916 95.9445 6.7C95.9445 7.492 96.1365 8.104 96.5205 8.536C96.9045 8.968 97.4085 9.184 98.0325 9.184C98.5125 9.184 98.9125 9.072 99.2325 8.848C99.5525 8.624 99.7725 8.304 99.8925 7.888H101.069C100.893 8.56 100.541 9.1 100.013 9.508C99.4845 9.908 98.8245 10.108 98.0325 10.108C97.4085 10.108 96.8525 9.968 96.3645 9.688C95.8845 9.408 95.5085 9.012 95.2365 8.5C94.9645 7.988 94.8285 7.388 94.8285 6.7ZM105.394 10.108C104.778 10.108 104.218 9.968 103.714 9.688C103.218 9.408 102.826 9.012 102.538 8.5C102.258 7.98 102.118 7.38 102.118 6.7C102.118 6.028 102.262 5.436 102.55 4.924C102.846 4.404 103.246 4.008 103.75 3.736C104.254 3.456 104.818 3.316 105.442 3.316C106.066 3.316 106.63 3.456 107.134 3.736C107.638 4.008 108.034 4.4 108.322 4.912C108.618 5.424 108.766 6.02 108.766 6.7C108.766 7.38 108.614 7.98 108.31 8.5C108.014 9.012 107.61 9.408 107.098 9.688C106.586 9.968 106.018 10.108 105.394 10.108ZM105.394 9.148C105.786 9.148 106.154 9.056 106.498 8.872C106.842 8.688 107.118 8.412 107.326 8.044C107.542 7.676 107.65 7.228 107.65 6.7C107.65 6.172 107.546 5.724 107.338 5.356C107.13 4.988 106.858 4.716 106.522 4.54C106.186 4.356 105.822 4.264 105.43 4.264C105.03 4.264 104.662 4.356 104.326 4.54C103.998 4.716 103.734 4.988 103.534 5.356C103.334 5.724 103.234 6.172 103.234 6.7C103.234 7.236 103.33 7.688 103.522 8.056C103.722 8.424 103.986 8.7 104.314 8.884C104.642 9.06 105.002 9.148 105.394 9.148ZM118.109 3.304C118.621 3.304 119.077 3.412 119.477 3.628C119.877 3.836 120.193 4.152 120.425 4.576C120.657 5 120.773 5.516 120.773 6.124V10H119.693V6.28C119.693 5.624 119.529 5.124 119.201 4.78C118.881 4.428 118.445 4.252 117.893 4.252C117.325 4.252 116.873 4.436 116.537 4.804C116.201 5.164 116.033 5.688 116.033 6.376V10H114.953V6.28C114.953 5.624 114.789 5.124 114.461 4.78C114.141 4.428 113.705 4.252 113.153 4.252C112.585 4.252 112.133 4.436 111.797 4.804C111.461 5.164 111.293 5.688 111.293 6.376V10H110.201V3.424H111.293V4.372C111.509 4.028 111.797 3.764 112.157 3.58C112.525 3.396 112.929 3.304 113.369 3.304C113.921 3.304 114.409 3.428 114.833 3.676C115.257 3.924 115.573 4.288 115.781 4.768C115.965 4.304 116.269 3.944 116.693 3.688C117.117 3.432 117.589 3.304 118.109 3.304Z" fill="#DC2626"/>
</svg>
