<svg width="720" height="136" viewBox="0 0 720 136" fill="none" xmlns="http://www.w3.org/2000/svg">
<path d="M6 69V132H37.5H69V69V6H37.5H6V69ZM65 17V24H37.5H10V17V10H37.5H65V17ZM65 37.5V44H37.5H10V37.5V31H37.5H65V37.5ZM65 58.5V65H37.5H10V58.5V52H37.5H65V58.5ZM65 80V87H54.5H44V107.5V128H37.5H31V107.5V87H20.5H10V80V73H37.5H65V80Z" fill="#DC2626"/>
<path d="M114.8 24.9L114.5 39.8L94.5 25.5C83.5 17.6 74.2 11.1 73.8 11.1C73.3 11 73 23.1 73 38V65H79.5H86V50V35.1L106.1 49.5C117.1 57.5 126.3 64 126.6 64C126.8 64 127 51.8 127 37V10H121H115.1L114.8 24.9Z" fill="black"/>
<path d="M135 16.5V23H156H177V37.5V52H162.5H148V39.5V27H141.5H135V46V65H162H189V37.5V10H162H135V16.5Z" fill="black"/>
<path d="M198 37.5V65H225H252V58.5V52H231.5H211V31V10H204.5H198V37.5Z" fill="black"/>
<path d="M261 16.5V23H288H315V16.5V10H288H261V16.5Z" fill="black"/>
<path d="M323 27V44H344H365V48V52H352.2H339.4L333 58.5L326.6 65H351.8H377V48V31H356.5H336V27V23H348.7H361.4L367.2 17.3C370.4 14.1 373 11.2 373 10.8C373 10.4 361.8 10 348 10H323V27Z" fill="black"/>
<path d="M386 27V44H407H428V48V52H415.2H402.4L396 58.5L389.6 65H414.8H440V48V31H419.5H399V27V23H411.8H424.6L431 16.5L437.4 10H411.7H386V27Z" fill="black"/>
<path d="M261 37.5V44H288H315V37.5V31H288H261V37.5Z" fill="black"/>
<path d="M261 58.5V65H288H315V58.5V52H288H261V58.5Z" fill="black"/>
<path d="M73 79.5V86H100H127V79.5V73H100H73V79.5Z" fill="black"/>
<path d="M135 100.5V128H162H189V121.5V115H168.5H148V100.5V86H168.5H189V79.5V73H162H135V100.5Z" fill="black"/>
<path d="M198 100.5V128H204.5H211V117.5V107H225.5H240V117.5V128H246H252V100.5V73H246H240V83.5V94H225.5H211V83.5V73H204.5H198V100.5Z" fill="black"/>
<path d="M302.8 87.9L302.5 102.8L282.5 88.5C271.5 80.6 262.2 74.1 261.8 74.1C261.3 74 261 86.1 261 101V128H267.5H274V113V98.1L294.1 112.5C305.1 120.5 314.3 127 314.6 127C314.8 127 315 114.8 315 100V73H309H303.1L302.8 87.9Z" fill="black"/>
<path d="M323 100.5V128H350H377V100.5V73H350H323V100.5ZM365 100.5V115H350.5H336V100.5V86H350.5H365V100.5Z" fill="black"/>
<path d="M386 100.5V128H413H440V121.5V115H419.5H399V94V73H392.5H386V100.5Z" fill="black"/>
<path d="M449 100.5V128H476H503V100.5V73H476H449V100.5ZM491 100.5V115H476.5H462V100.5V86H476.5H491V100.5Z" fill="black"/>
<path d="M511 100.5V128H538H565V111V93.9L553.8 94.2L542.5 94.5L542.2 100.7L541.9 107H547.5H553V111V115H538.5H524V100.5V86H544.5H565V79.5V73H538H511V100.5Z" fill="black"/>
<path d="M574 100.5V128H580.5H587V100.5V73H580.5H574V100.5Z" fill="black"/>
<path d="M595 79.5V86H622H649V79.5V73H622H595V79.5Z" fill="black"/>
<path d="M658 90V107H679H700V111V115H687.2H674.4L668 121.5L661.6 128H686.8H712V111V94H691.5H671V90V86H683.8H696.6L703 79.5L709.4 73H683.7H658V90Z" fill="black"/>
<path d="M73 100.5V107H100H127V100.5V94H100H73V100.5Z" fill="black"/>
<path d="M595 100.5V107H622H649V100.5V94H622H595V100.5Z" fill="black"/>
<path d="M73 121.5V128H100H127V121.5V115H100H73V121.5Z" fill="black"/>
<path d="M595 121.5V128H622H649V121.5V115H622H595V121.5Z" fill="black"/>
</svg>
