<?xml version="1.0" standalone="yes"?>
<svg xmlns="http://www.w3.org/2000/svg" width="662" height="190">
<path style="fill:#fefefe; stroke:none;" d="M0 0L0 190L662 190L662 0L0 0z"/>
<path style="fill:#455dd6; stroke:none;" d="M12 6C12 10.7289 10.4435 18.441 14.3179 21.9414C19.8638 26.9518 30.1178 25 37 25L94 25L94 6L12 6z"/>
<path style="fill:#838587; stroke:none;" d="M106 6L107 7L106 6M168 6L168 38C168 42.1183 169.242 48.8104 166 48L166 49L169 50C169 37.5196 172.81 17.4634 168 6z"/>
<path style="fill:#4c4c4c; stroke:none;" d="M169 6L169 50C148.315 37.2351 128.722 15.6122 106 7L106 87L125 87L125 43L188 88L188 6L169 6M200 6L200 25L263 25L263 69L219 69L219 31L200 31L200 87L282 87L282 6L200 6M294 6L294 87L376 87L376 69L313 69L313 6L294 6z"/>
<path style="fill:#838587; stroke:none;" d="M313 6L313 69L376 69L376 68L314 68L314 26L313 6z"/>
<path style="fill:#4c4c4c; stroke:none;" d="M388 6L388 25L470 25L470 6L388 6M482 6L482 56L545 56L545 69C533.771 69 516.536 65.7188 506 69.6034C499.266 72.0862 492.033 81.2743 488 87L564 87L564 38L519 38L502.603 36.3966L501 25C512.229 25 529.464 28.2812 540 24.3966C547.02 21.8083 554.79 11.9772 559 6L482 6M576 6L576 56L639 56L639 69C627.771 69 610.536 65.7188 600 69.6034C593.266 72.0862 586.033 81.2743 582 87L658 87L658 38L613 38L596.603 36.3966L595 25C606.229 25 623.464 28.2812 634 24.3966C641.02 21.8083 648.79 11.9772 653 6L576 6z"/>
<path style="fill:#838587; stroke:none;" d="M108 7L109 8L108 7M109 8L110 9L109 8M111 9L112 10L111 9M112 10L113 11L112 10M115 12L116 13L115 12M118 14L119 15L118 14M119 15L120 16L119 15M121 16L122 17L121 16M122 17L123 18L122 17M125 19L126 20L125 19M126 20L127 21L126 20z"/>
<path style="fill:#aa20cc; stroke:none;" d="M12 21L12 25L18 25L18 24L12 21z"/>
<path style="fill:#838587; stroke:none;" d="M128 21L129 22L128 21M129 22L130 23L129 22M132 24L133 25L132 24M12 25L12 26L94 26L69 25L12 25M133 25L134 26L133 25M262 25L262 68L220 68L220 31L219 31L219 69L263 69C263 56.5196 266.81 36.4634 262 25M501 25L501 37L502 37L501 25M595 25L595 37L596 37L595 25M135 26L136 27L135 26M136 27L137 28L136 27M139 29L140 30L139 29M200 30L200 31L219 31L200 30M142 31L143 32L142 31M143 32L144 33L143 32M145 33L146 34L145 33M146 34L147 35L146 34M149 36L150 37L149 36z"/>
<path style="fill:#aa20cc; stroke:none;" d="M12 37L12 57L61 56C45.9332 41.5682 32.2974 37 12 37z"/>
<path style="fill:#455dd6; stroke:none;" d="M27 37L27 38C41.4967 38.0096 48.4944 49.984 60.9606 55.5332C65.6791 57.6335 71.0096 56.5472 76.0008 56.7446C79.995 56.9025 91.225 59.0953 93.3966 54.6821C95.6011 50.202 94 41.9337 94 37L27 37z"/>
<path style="fill:#838587; stroke:none;" d="M150 37L151 38L150 37M388 37L388 38L470 38L445 37L388 37M502 37L502 38L564 38L544 37L502 37M596 37L596 38L658 38L638 37L596 37M152 38L153 39L152 38z"/>
<path style="fill:#4c4c4c; stroke:none;" d="M388 38L388 56L470 56L470 38L388 38z"/>
<path style="fill:#838587; stroke:none;" d="M153 39L154 40L153 39M156 41L157 42L156 41M157 42L158 43L157 42M125 43L125 87L126 87C126 74.5196 129.81 54.4634 125 43M159 43L160 44L159 43M160 44L161 45L160 44M128 45L129 46L128 45M129 46L130 47L129 46M163 46L164 47L163 46M131 47L132 48L131 47M132 48L133 49L132 48M135 50L136 51L135 50M136 51L137 52L136 51M138 52L139 53L138 52M139 53L140 54L139 53M142 55L143 56L142 55M49 56L49 57L55 57L49 56z"/>
<path style="fill:#455dd6; stroke:none;" d="M55 56L56 57L55 56z"/>
<path style="fill:#838587; stroke:none;" d="M56 56L56 57L63 57L56 56M64 56L65 57L64 56M68 56L69 57L68 56M73 56L73 57L76 57L73 56M93 56L94 57L93 56M143 56L144 57L143 56M388 56L388 57L470 57L445 56L388 56M482 56L482 57L544 57L544 68L506 68L506 69L545 69L545 56L482 56M576 56L576 57L638 57L638 68L600 68L600 69L639 69L639 56L576 56M145 57L146 58L145 57M146 58L147 59L146 58M149 60L150 61L149 60M150 61L151 62L150 61M153 63L154 64L153 63M156 65L157 66L156 65M157 66L158 67L157 66M12 68L13 69L12 68z"/>
<path style="fill:#aa20cc; stroke:none;" d="M12 88L94 88C93.7619 61.6982 55.6092 70.4108 39 68.8302C33.1485 68.2734 18.5423 65.1161 13.6034 69.0278C9.94246 71.9273 12 83.7177 12 88z"/>
<path style="fill:#838587; stroke:none;" d="M36 68L36 69L94 69L75 68L36 68M160 68L161 69L160 68M388 68L388 69L470 69L445 68L388 68z"/>
<path style="fill:#455dd6; stroke:none;" d="M79 69L79 70L93 81L94 81L94 69L79 69z"/>
<path style="fill:#838587; stroke:none;" d="M161 69L162 70L161 69z"/>
<path style="fill:#4c4c4c; stroke:none;" d="M388 69L388 87L470 87L470 69L388 69z"/>
<path style="fill:#838587; stroke:none;" d="M163 70L164 71L163 70M164 71L165 72L164 71M167 73L168 74L167 73M168 74L169 75L168 74M170 75L171 76L170 75M171 76L172 77L171 76M174 78L175 79L174 78M175 79L176 80L175 79M177 80L178 81L177 80M178 81L179 82L178 81M181 83L182 84L181 83M182 84L183 85L182 84M185 86L186 87L185 86M106 87L106 88L125 88L106 87M200 87L200 88L282 88L257 87L200 87M294 87L294 88L376 88L351 87L294 87M388 87L388 88L470 88L445 87L388 87M487 87L487 88L564 88L540 87L487 87M581 87L581 88L658 88L634 87L581 87M4 122L4 127L57 127L57 122L4 122M62 127L110 127L110 122C97.886 122 70.0578 116.835 62 127M118 127L166 127L166 122C153.886 122 126.058 116.835 118 127M172 122L172 127L185 127L185 122L172 122M212 122L212 127L225 127L225 122L212 122M233 122L233 127L249 127C245.804 120.664 239.201 122 233 122M273 122L273 127L286 127L286 122L273 122M294 127L346 127C343.773 124.191 341.7 122.521 338 122.109C327.175 120.902 301.282 118.044 294 127M354 122L354 127L367 127L367 122L354 122M406 127L458 127C455.773 124.191 453.7 122.521 450 122.109C439.175 120.902 413.282 118.044 406 127M467 127L520 127L520 122L484 122C477.363 122 471.516 121.446 467 127M527 122L527 127L540 127L540 122L527 122M547 127L595 127L595 122C582.886 122 555.058 116.835 547 127M603 127L655 127L655 122L620 122C613.255 122 607.538 121.276 603 127M4 129L4 134L57 134L57 129L4 129M61 134L110 134L110 129L73 129C67.8046 129 62.0463 127.73 61 134M117 134L166 134L166 129L129 129C123.805 129 118.046 127.73 117 134M172 129L172 134L185 134L185 129L172 129M212 129L212 134L225 134L225 129L212 129M233 129L233 134L254 134C249.928 126.743 240.268 129 233 129M273 129L273 134L286 134L286 129L273 129M294 129L294 134L347 134L347 129L294 129M354 129L354 134L367 134L367 129L354 129M406 129L406 134L459 134L459 129L406 129M467 129L467 134L520 134L520 129L467 129M527 129L527 134L540 134L540 129L527 129M546 134L595 134L595 129L558 129C552.805 129 547.046 127.73 546 134M602 129L602 134L655 134L655 129L602 129M25 136L25 141L38 141L38 136L25 136M61 136L61 141L75 141L75 136L61 136M117 136L117 141L131 141L131 136L117 136M172 136L172 141L185 141L185 136L172 136M212 136L212 141L225 141L225 136L212 136M233 136L233 141L259 141C254.506 132.99 241.033 136 233 136M273 136L273 141L286 141L286 136L273 136M294 136L294 141L307 141L307 136L294 136M334 136L334 141L347 141L347 136L334 136M354 136L354 141L367 141L367 136L354 136M406 136L406 141L419 141L419 136L406 136M446 136L446 141L459 141L459 136L446 136M467 136L467 141L480 141L480 136L467 136M527 136L527 141L540 141L540 136L527 136M546 136L546 141L560 141L560 136L546 136M602 136L602 141L615 141L615 136L602 136M25 143L25 148L38 148L38 143L25 143M61 143L61 148L110 148L110 143L61 143M117 143L117 148L131 148L131 143L117 143M172 143L172 148L225 148L225 143L172 143M233 143L233 148L264 148C259.164 139.38 241.722 143 233 143M273 143L273 148L286 148L286 143L273 143M294 143L294 148L307 148L307 143L294 143M334 143L334 148L347 148L347 143L334 143M354 143L354 148L367 148L367 143L354 143M406 143L406 148L419 148L419 143L406 143M446 143L446 148L459 148L459 143L446 143M467 143L467 148L480 148L480 143L467 143M489 143L489 148L520 148L520 143L489 143M527 143L527 148L540 148L540 143L527 143M546 143L546 148L595 148L595 143L546 143M602 143L602 148L654 148C650.907 142.254 644.809 143 639 143L602 143M25 150L25 155L38 155L38 150L25 150M61 150L61 155L110 155L110 150L61 150M117 150L117 155L131 155L131 150L117 150M172 150L172 155L225 155L225 150L172 150M233 150L233 155L246 155L246 150L233 150M249 150C253.357 156.969 261.692 155 269 155C265.879 147.551 255.822 150 249 150M273 150L273 155L286 155L286 150L273 150M294 150L294 155L307 155L307 150L294 150M334 150L334 155L347 155L347 150L334 150M354 150L354 155L367 155L367 150L354 150M406 150L406 155L419 155L419 150L406 150M446 150L446 155L459 155L459 150L446 150M467 150L467 155L480 155L480 150L467 150M489 150L489 155L520 155L520 150L489 150M527 150L527 155L540 155L540 150L527 150M546 150L546 155L595 155L595 150L546 150M603 150C607.538 155.724 613.255 155 620 155L655 155L655 150L603 150M25 157L25 162L38 162L38 157L25 157M61 157L61 162L75 162L75 157L61 157M117 157L117 162L131 162L131 157L117 157M172 157L172 162L185 162L185 157L172 157M212 157L212 162L225 162L225 157L212 157M233 157L233 162L246 162L246 157L233 157M254 157C259.425 165.677 276.833 162 286 162L286 157L254 157M294 157L294 162L307 162L307 157L294 157M334 157L334 162L347 162L347 157L334 157M354 157L354 162L367 162L367 157L354 157M406 157L406 162L419 162L419 157L406 157M446 157L446 162L459 162L459 157L446 157M467 157L467 162L480 162L480 157L467 157M507 157L507 162L520 162L520 157L507 157M527 157L527 162L540 162L540 157L527 157M546 157L546 162L560 162L560 157L546 157M642 157L642 162L655 162L655 157L642 157M25 165L25 170L38 170L38 165L25 165M61 165L61 170L75 170L75 165L61 165M117 165L117 170L131 170L131 165L117 165M172 165L172 170L185 170L185 165L172 165M212 165L212 170L225 170L225 165L212 165M233 165L233 170L246 170L246 165L233 165M259 165C264.399 172.981 277.353 170 286 170L286 165L259 165M294 165L294 170L307 170L307 165L294 165M334 165L334 170L347 170L347 165L334 165M354 165L354 170L367 170L367 165L354 165M406 165L406 170L419 170L419 165L406 165M446 165L446 170L459 170L459 165L446 165M467 165L467 170L480 170L480 165L467 165M507 165L507 170L520 170L520 165L507 165M527 165L527 170L540 170L540 165L527 165M546 165L546 170L560 170L560 165L546 165M642 165L642 170L655 170L655 165L642 165M25 172L25 177L38 177L38 172L25 172M61 172C62.0463 178.27 67.8046 177 73 177L110 177L110 172L61 172M117 172C118.046 178.27 123.805 177 129 177L166 177L166 172L117 172M172 172L172 177L185 177L185 172L172 172M212 172L212 177L225 177L225 172L212 172M233 172L233 177L246 177L246 172L233 172M264 172C268.885 179.221 278.181 177 286 177L286 172L264 172M294 172L294 177L347 177L347 172L294 172M354 172L354 177L402 177L402 172L354 172M406 172L406 177L459 177L459 172L406 172M467 172L467 177L520 177L520 172L467 172M527 172L527 177L540 177L540 172L527 172M546 172C547.046 178.27 552.805 177 558 177L595 177L595 172L546 172M602 172L602 177L655 177L655 172L602 172M25 179L25 184L38 184L38 179L25 179M62 179C70.0578 189.165 97.886 184 110 184L110 179L62 179M118 179C126.058 189.165 153.886 184 166 184L166 179L118 179M172 179L172 184L185 184L185 179L172 179M212 179L212 184L225 184L225 179L212 179M233 179L233 184L246 184L246 179L233 179M269 179C273.222 185.241 279.155 184 286 184L286 179L269 179M294 179C301.282 187.956 327.175 185.098 338 183.891C341.7 183.479 343.773 181.809 346 179L294 179M355 179C357.937 184.456 363.415 183.998 369 184L402 184L402 179L355 179M406 179C413.282 187.956 439.175 185.098 450 183.891C453.7 183.479 455.773 181.809 458 179L406 179M467 179C471.516 184.554 477.363 184 484 184L520 184L520 179L467 179M527 179L527 184L540 184L540 179L527 179M547 179C555.058 189.165 582.886 184 595 184L595 179L547 179M602 179L602 184L639 184C644.809 184 650.907 184.746 654 179L602 179z"/>
</svg>
