<svg width="24" height="24" viewBox="0 0 24 24" fill="none" xmlns="http://www.w3.org/2000/svg">
<path d="M2.21967 11.4697L6.46967 7.21967C6.76256 6.92678 7.23744 6.92678 7.53033 7.21967C7.7966 7.48594 7.8208 7.9026 7.60295 8.19621L7.53033 8.28033L3.81066 12L7.53033 15.7197C7.82322 16.0126 7.82322 16.4874 7.53033 16.7803C7.26406 17.0466 6.8474 17.0708 6.55379 16.8529L6.46967 16.7803L2.21967 12.5303C1.9534 12.2641 1.9292 11.8474 2.14705 11.5538L2.21967 11.4697ZM16.4697 7.21967C16.7359 6.9534 17.1526 6.9292 17.4462 7.14705L17.5303 7.21967L21.7803 11.4697C22.0466 11.7359 22.0708 12.1526 21.8529 12.4462L21.7803 12.5303L17.5303 16.7803C17.2374 17.0732 16.7626 17.0732 16.4697 16.7803C16.2034 16.5141 16.1792 16.0974 16.3971 15.8038L16.4697 15.7197L20.1893 12L16.4697 8.28033C16.1768 7.98744 16.1768 7.51256 16.4697 7.21967Z" fill="#212121"/>
<path d="M8.06571 18.9434L14.5657 4.44342C14.7351 4.06544 15.1789 3.89639 15.5569 4.06583C15.9034 4.22114 16.0743 4.60697 15.9699 4.96133L15.9345 5.057L9.43447 19.557C9.26503 19.935 8.82127 20.104 8.4433 19.9346C8.09682 19.7793 7.9259 19.3934 8.03032 19.0391L8.06571 18.9434Z" fill="#DC2626"/>
</svg>
