<svg width="123" height="99" viewBox="0 0 123 99" fill="none" xmlns="http://www.w3.org/2000/svg">
<g clip-path="url(#clip0_403_50)">
<path fill-rule="evenodd" clip-rule="evenodd" d="M30.22 55.2499L30.11 62.2499H42.65C43.9165 62.2523 45.1315 62.751 46.0345 63.6391C46.9375 64.5271 47.4564 65.7337 47.48 66.9999V71.8299V90.7299C47.4747 92.0093 46.9642 93.2348 46.0595 94.1395C45.1548 95.0441 43.9294 95.5547 42.65 95.5599H37.77V73.5599C37.77 71.5599 38.15 71.8099 36.23 71.8099H23.81H17.62C15.6969 71.802 13.8549 71.0346 12.4951 69.6748C11.1353 68.315 10.3679 66.473 10.36 64.5499V40.7899C10.3626 38.8325 11.1407 36.9559 12.5238 35.5709C13.907 34.1858 15.7826 33.4052 17.74 33.3999H21.39C27.18 33.3999 27.76 36.1699 29.24 39.0699L35.41 41.4999C39.87 43.4999 38.73 43.9099 41.76 40.1599L45.7 35.2699C47.63 32.1899 55.26 35.4099 51.99 40.5799L46.27 48.3899C43.88 51.6499 40.72 52.1099 36.89 50.5099L30.22 48.1599V55.2499ZM57.57 31.3799C59.7189 33.4767 62.4547 34.8703 65.4142 35.3758C68.3737 35.8812 71.417 35.4746 74.14 34.2099L79.27 36.2099L77.57 32.2099C83.27 27.6399 82.25 21.3599 78.05 17.0799C77.7703 18.7101 77.2193 20.2819 76.42 21.7299C75.2401 23.8308 73.6321 25.6603 71.7 27.0999C69.718 28.594 67.4868 29.7248 65.11 30.4399C62.6668 31.1767 60.1207 31.5144 57.57 31.4399V31.3799ZM65.45 12.1399C65.891 12.1399 66.3222 12.2707 66.6889 12.5158C67.0556 12.7608 67.3415 13.1091 67.5102 13.5166C67.679 13.924 67.7232 14.3724 67.6371 14.805C67.5511 15.2376 67.3387 15.6349 67.0268 15.9468C66.715 16.2587 66.3176 16.471 65.885 16.5571C65.4525 16.6431 65.0041 16.599 64.5966 16.4302C64.1891 16.2614 63.8408 15.9756 63.5958 15.6089C63.3508 15.2421 63.22 14.811 63.22 14.3699C63.22 13.7785 63.4549 13.2113 63.8731 12.7931C64.2913 12.3749 64.8585 12.1399 65.45 12.1399ZM50.7 12.1399C51.141 12.1399 51.5722 12.2707 51.9389 12.5158C52.3056 12.7608 52.5915 13.1091 52.7602 13.5166C52.929 13.924 52.9732 14.3724 52.8871 14.805C52.8011 15.2376 52.5887 15.6349 52.2768 15.9468C51.965 16.2587 51.5676 16.471 51.135 16.5571C50.7025 16.6431 50.2541 16.599 49.8466 16.4302C49.4391 16.2614 49.0908 15.9756 48.8458 15.6089C48.6008 15.2421 48.47 14.811 48.47 14.3699C48.47 13.7785 48.7049 13.2113 49.1231 12.7931C49.5413 12.3749 50.1086 12.1399 50.7 12.1399ZM58.08 12.1399C58.521 12.1399 58.9522 12.2707 59.3189 12.5158C59.6856 12.7608 59.9715 13.1091 60.1402 13.5166C60.309 13.924 60.3532 14.3724 60.2671 14.805C60.1811 15.2376 59.9687 15.6349 59.6568 15.9468C59.345 16.2587 58.9476 16.471 58.515 16.5571C58.0825 16.6431 57.6341 16.599 57.2266 16.4302C56.8191 16.2614 56.4708 15.9756 56.2258 15.6089C55.9808 15.2421 55.85 14.811 55.85 14.3699C55.85 13.7785 56.0849 13.2113 56.5031 12.7931C56.9213 12.3749 57.4886 12.1399 58.08 12.1399ZM58.52 -5.91464e-05C63.0078 0.0781468 67.3365 1.675 70.8 4.52994C72.3514 5.77911 73.6012 7.36198 74.4565 9.16082C75.3117 10.9597 75.7505 12.9282 75.74 14.9199C75.6355 16.9167 75.0812 18.864 74.1184 20.6164C73.1556 22.3688 71.8093 23.881 70.18 25.0399C66.5482 27.6838 62.1281 29.0197 57.64 28.8299C56.3283 28.7935 55.0228 28.6362 53.74 28.3599C52.6028 28.1248 51.4885 27.7902 50.41 27.3599L42.74 30.3599L45.3 24.2599C43.833 23.0151 42.6266 21.4926 41.75 19.7799C40.8229 17.9581 40.3658 15.9334 40.42 13.8899C40.529 11.8962 41.0876 9.95295 42.0539 8.20562C43.0203 6.4583 44.3693 4.95216 46 3.79994C49.6219 1.15834 54.0307 -0.180864 58.51 -5.91464e-05H58.52ZM58.47 1.86994C54.4045 1.69634 50.4001 2.90541 47.11 5.29994C45.702 6.29221 44.5369 7.59038 43.7021 9.09711C42.8674 10.6038 42.3846 12.28 42.29 13.9999C42.2467 15.7356 42.6386 17.4546 43.43 18.9999C44.2995 20.666 45.517 22.1256 47 23.2799L47.56 23.7199L46.19 26.9999L50.43 25.3399L50.78 25.4899C51.8613 25.9442 52.9829 26.2958 54.13 26.5399C55.3009 26.794 56.4924 26.9413 57.69 26.9799C61.7532 27.1593 65.7573 25.9574 69.05 23.5699C70.4498 22.5818 71.609 21.2911 72.4417 19.7936C73.2744 18.2962 73.7592 16.6304 73.86 14.9199C73.8647 13.2067 73.4822 11.5146 72.7411 9.97001C71.9999 8.4254 70.9193 7.06824 69.58 5.99994C66.4451 3.42861 62.5339 1.99098 58.48 1.91994L58.47 1.86994ZM97.78 10.5999C95.7824 10.5999 93.8297 11.1923 92.1687 12.3021C90.5078 13.4119 89.2132 14.9893 88.4488 16.8348C87.6844 18.6804 87.4843 20.7111 87.8741 22.6704C88.2638 24.6296 89.2257 26.4292 90.6382 27.8417C92.0507 29.2542 93.8504 30.2162 95.8096 30.6059C97.7688 30.9956 99.7996 30.7956 101.645 30.0311C103.491 29.2667 105.068 27.9721 106.178 26.3112C107.288 24.6503 107.88 22.6975 107.88 20.6999C107.88 18.0213 106.816 15.4523 104.922 13.5582C103.028 11.664 100.459 10.5999 97.78 10.5999ZM93.58 50.2199L93.77 62.2199H81.23C79.9584 62.2225 78.7389 62.7253 77.8351 63.6198C76.9313 64.5142 76.4157 65.7284 76.4 66.9999V71.8299H76.46V90.7299C76.4626 92.0084 76.971 93.2339 77.874 94.1388C78.7771 95.0438 80.0015 95.5547 81.28 95.5599H86.11V73.2399C86.11 71.1199 86.91 71.8499 89.3 71.8499H100.08H106.27C108.193 71.842 110.035 71.0746 111.395 69.7148C112.755 68.355 113.522 66.513 113.53 64.5899V39.3699C113.522 37.416 112.742 35.5445 111.359 34.1638C109.976 32.7831 108.104 32.0052 106.15 31.9999H102.49C94.89 31.9999 96.1 37.2399 92.73 40.5299C89.36 43.8199 90.25 44.1499 85.73 44.1499H75.92C71.53 44.0599 70.69 52.1499 76.92 51.7799H85.92C89.92 51.7799 90.26 52.4199 93.56 50.2299L93.58 50.2199ZM21.17 10.2399C23.17 10.238 25.1256 10.8292 26.7895 11.9389C28.4534 13.0486 29.7508 14.6269 30.5175 16.4741C31.2843 18.3213 31.4859 20.3544 31.0969 22.3162C30.708 24.278 29.7459 26.0803 28.3324 27.4952C26.9189 28.9102 25.1175 29.874 23.156 30.2649C21.1946 30.6558 19.1613 30.4562 17.3134 29.6913C15.4654 28.9264 13.8859 27.6306 12.7745 25.9678C11.6632 24.305 11.07 22.3499 11.07 20.3499C11.07 17.6703 12.1338 15.1003 14.0276 13.2046C15.9214 11.3089 18.4904 10.2426 21.17 10.2399Z" fill="black"/>
<path fill-rule="evenodd" clip-rule="evenodd" d="M117.933 90.8202C117.894 90.5132 117.753 90.2282 117.533 90.0103C115.772 88.2595 113.663 86.8969 111.343 86.0103C109.596 85.3374 107.766 84.9035 105.903 84.7202L106.273 78.9702H119.373C120.032 78.9676 120.663 78.7041 121.128 78.2374C121.592 77.7707 121.853 77.1389 121.853 76.4803C121.853 66.2103 119.433 58.4802 121.853 46.7802C122.573 43.3102 115.413 42.7802 115.413 46.9602V73.3402H90.6433C89.2833 73.3402 88.1633 75.1602 88.1633 76.5202V78.4602C88.1633 78.6061 88.2213 78.746 88.3244 78.8492C88.4276 78.9523 88.5675 79.0103 88.7133 79.0103H101.853L102.363 84.7002C100.393 84.825 98.4502 85.2291 96.5933 85.9002C94.3799 86.702 92.3424 87.9245 90.5933 89.5002C90.4056 89.6731 90.2683 89.8937 90.1961 90.1385C90.1239 90.3833 90.1195 90.6431 90.1833 90.8902C89.8293 91.11 89.5429 91.4234 89.3559 91.7958C89.1688 92.1682 89.0883 92.585 89.1233 93.0002C89.1233 93.7004 89.4015 94.3719 89.8966 94.867C90.3917 95.3621 91.0632 95.6402 91.7633 95.6402C92.4635 95.6402 93.135 95.3621 93.6301 94.867C94.1252 94.3719 94.4033 93.7004 94.4033 93.0002C94.4371 92.5816 94.354 92.1617 94.1633 91.7874C93.9727 91.4131 93.6819 91.0991 93.3233 90.8802C94.6109 89.8883 96.0446 89.1022 97.5733 88.5503C99.3528 87.908 101.222 87.5502 103.113 87.4902L103.403 90.3402V90.4602C102.839 90.5977 102.339 90.9252 101.988 91.3877C101.636 91.8503 101.455 92.4196 101.473 93.0002C101.451 93.3599 101.503 93.7204 101.625 94.0593C101.748 94.3982 101.938 94.7085 102.185 94.9711C102.432 95.2336 102.73 95.4428 103.061 95.5859C103.391 95.7289 103.748 95.8027 104.108 95.8027C104.469 95.8027 104.825 95.7289 105.156 95.5859C105.487 95.4428 105.785 95.2336 106.032 94.9711C106.279 94.7085 106.469 94.3982 106.591 94.0593C106.714 93.7204 106.766 93.3599 106.743 93.0002C106.765 92.4232 106.586 91.8564 106.238 91.3956C105.89 90.9347 105.394 90.6079 104.833 90.4702V90.3302L105.023 87.5202C106.833 87.6292 108.615 88.0206 110.303 88.6802C111.832 89.2619 113.257 90.0858 114.523 91.1203C114.244 91.3413 114.024 91.6297 113.886 91.9585C113.748 92.2872 113.695 92.6457 113.733 93.0002C113.792 93.6807 114.089 94.3186 114.572 94.8016C115.055 95.2845 115.693 95.5815 116.373 95.6402C117.06 95.5958 117.707 95.3037 118.194 94.8181C118.682 94.3326 118.976 93.6866 119.023 93.0002C119.059 92.5763 118.975 92.1509 118.78 91.7725C118.586 91.3941 118.289 91.078 117.923 90.8602L117.933 90.8202ZM79.4733 53.1503H44.0233C43.9093 53.1503 43.7999 53.1956 43.7193 53.2762C43.6387 53.3568 43.5933 53.4662 43.5933 53.5802V59.7302C43.5959 59.8435 43.642 59.9514 43.7221 60.0315C43.8022 60.1116 43.9101 60.1577 44.0233 60.1602H57.6633V97.8202C57.6659 97.9706 57.7268 98.1141 57.8331 98.2205C57.9395 98.3268 58.083 98.3877 58.2333 98.3902H64.7433C64.8928 98.3876 65.0352 98.3264 65.1399 98.2198C65.2447 98.1132 65.3034 97.9697 65.3033 97.8202V60.1602H79.4733C79.5298 60.1602 79.5857 60.1491 79.6379 60.1275C79.6901 60.1059 79.7375 60.0742 79.7774 60.0343C79.8173 59.9944 79.849 59.947 79.8706 59.8948C79.8922 59.8426 79.9033 59.7867 79.9033 59.7302V53.5802C79.9033 53.5238 79.8922 53.4679 79.8706 53.4157C79.849 53.3635 79.8173 53.3161 79.7774 53.2762C79.7375 53.2363 79.6901 53.2046 79.6379 53.183C79.5857 53.1614 79.5298 53.1503 79.4733 53.1503ZM0.36335 48.2602H3.88335C4.22221 48.2813 4.5419 48.4247 4.78289 48.6638C5.02387 48.903 5.16975 49.2216 5.19335 49.5603C6.53918 57.879 7.20804 66.2933 7.19335 74.7203H31.2833C31.7431 74.7202 32.1842 74.9022 32.5102 75.2263C32.8362 75.5505 33.0207 75.9905 33.0233 76.4502V79.9403H31.6334V97.8202C31.6307 97.9591 31.5737 98.0913 31.4746 98.1886C31.3755 98.2858 31.2422 98.3403 31.1034 98.3402H26.4933C26.3545 98.3403 26.2212 98.2858 26.1221 98.1886C26.023 98.0913 25.966 97.9591 25.9634 97.8202V90.0302H6.25335C5.96335 92.4002 5.61335 94.7602 5.19335 97.1302C5.16796 97.4693 5.02179 97.7879 4.78141 98.0283C4.54102 98.2687 4.22236 98.4149 3.88335 98.4403H0.36335C-0.35665 98.4403 -1.14665 97.8202 -0.976651 97.1302C3.69335 80.9802 2.72335 65.1803 -0.976651 49.5603C-1.13665 48.8703 -0.386651 48.2602 0.333349 48.2602H0.36335ZM25.9634 87.6203V79.9403H7.13335C7.02335 83.2103 6.80335 84.3603 6.45335 87.6203H25.9634Z" fill="#DC2626"/>
</g>
<defs>
<clipPath id="clip0_403_50">
<rect width="122.88" height="98.62" fill="white"/>
</clipPath>
</defs>
</svg>
