<svg width="123" height="87" viewBox="0 0 123 87" fill="none" xmlns="http://www.w3.org/2000/svg">
<g clip-path="url(#clip0_403_7)">
<path fill-rule="evenodd" clip-rule="evenodd" d="M41.118 30.451V83.582C41.118 84.594 40.289 85.423 39.278 85.423H1.841C0.829 85.423 0 84.594 0 83.582V30.451C0 29.44 0.829 28.611 1.841 28.611H39.273C40.289 28.611 41.118 29.439 41.118 30.451ZM20.557 79.303C21.721 79.303 22.667 80.248 22.667 81.412C22.667 82.576 21.721 83.522 20.557 83.522C19.393 83.522 18.447 82.576 18.447 81.412C18.452 80.248 19.393 79.303 20.557 79.303ZM38.622 31.895V77.432H2.755V31.895H38.622ZM102.54 44.215H118.482C119.695 44.215 120.802 44.71 121.591 45.505C122.391 46.306 122.879 47.407 122.879 48.614V82.287C122.879 83.501 122.385 84.608 121.591 85.396C120.789 86.198 119.689 86.685 118.482 86.685H102.54C101.326 86.685 100.219 86.191 99.431 85.396C98.63 84.596 98.142 83.495 98.142 82.287V48.608C98.142 47.394 98.636 46.287 99.431 45.498C100.231 44.698 101.326 44.215 102.54 44.215ZM99.657 80.576H121.358V49.012H99.657V80.576ZM110.505 81.952C111.5 81.952 112.313 82.753 112.313 83.76C112.313 84.756 111.512 85.569 110.505 85.569C109.51 85.569 108.696 84.768 108.696 83.76C108.696 82.766 109.497 81.952 110.505 81.952Z" fill="black"/>
<path fill-rule="evenodd" clip-rule="evenodd" d="M53.295 73.994H78.694C78.758 78.39 80.566 82.319 85.477 85.423H46.52C50.44 82.576 53.313 79.116 53.295 73.994ZM16.8 0H114.211C115.753 0 117.011 1.257 117.011 2.8V34.53H113.035V6.268C113.035 4.909 111.925 3.789 110.556 3.789H20.445C19.086 3.789 17.966 4.899 17.966 6.268V22.446H14V2.8C14 1.257 15.258 0 16.8 0ZM46.33 60.417H91.808V70.13H46.33V60.417Z" fill="#DC2626"/>
</g>
<defs>
<clipPath id="clip0_403_7">
<rect width="122.88" height="86.686" fill="white"/>
</clipPath>
</defs>
</svg>
