<svg width="123" height="123" viewBox="0 0 123 123" fill="none" xmlns="http://www.w3.org/2000/svg">
<g clip-path="url(#clip0_402_2)">
<path fill-rule="evenodd" clip-rule="evenodd" d="M18 27.19C26.26 29.95 37.76 31.65 50.53 31.65C63.3 31.65 74.83 30 83.09 27.19C90.34 24.77 94.82 21.84 94.82 18.97C94.82 16.1 90.34 13.18 83.09 10.76C74.83 8 63.33 6.29 50.56 6.29C37.79 6.29 26.29 8 18 10.76C2.64998 15.89 2.21998 21.91 18 27.19ZM49.18 95C36.31 94.88 24.63 93.07 16.04 90.2C12.6236 89.125 9.36764 87.5946 6.35998 85.65V104.5C6.92998 107.17 11.28 109.86 18.03 112.11C26.29 114.87 37.79 116.58 50.56 116.58C52.71 116.58 54.83 116.58 56.9 116.43C57.4755 117.342 58.1459 118.19 58.9 118.96L62.35 122.4C58.55 122.72 54.58 122.89 50.5 122.89C37.09 122.89 24.88 121.05 15.98 118.08C11.29 116.52 -0.0200195 111.37 -0.0200195 105.22V103.22C0.0399805 75.1333 0.0466471 47.06 -1.95317e-05 19C-1.95317e-05 13.1 6.12998 8.12 16 4.81C24.94 1.84 37.15 0 50.56 0C63.97 0 76.18 1.84 85.08 4.81C93.98 7.78 100 12.22 101 17.41C101.121 17.7502 101.182 18.1089 101.18 18.47V49.33C99.5204 48.724 97.7668 48.4159 96 48.42H94.81C94.8147 48.3434 94.8147 48.2666 94.81 48.19V28.52C91.7733 30.4941 88.4834 32.0482 85.03 33.14C76.18 36.11 64 38 50.56 38C37.12 38 24.94 36.11 16 33.14C12.5831 32.0619 9.32709 30.528 6.31998 28.58V48.78C6.88998 51.46 11.24 54.15 17.99 56.4C26.25 59.16 37.75 60.87 50.52 60.87C54.61 60.87 58.58 60.69 62.35 60.36L60.72 62C60.49 62.2 60.27 62.4 60.05 62.62C58.7797 63.8859 57.7466 65.3694 57 67C54.89 67.09 52.73 67.14 50.55 67.14C37.14 67.14 24.93 65.3 16.03 62.33C12.6181 61.2604 9.3656 59.7368 6.35998 57.8V76.65C6.92998 79.32 11.28 82 18 84.26C26 86.92 36.9 88.6 49.09 88.72V93.72C49.09 94.16 49.09 94.6 49.15 95.03L49.18 95Z" fill="black"/>
<path fill-rule="evenodd" clip-rule="evenodd" d="M111.95 68.38L116.37 72.8C116.929 73.3621 117.242 74.1224 117.242 74.915C117.242 75.7075 116.929 76.4679 116.37 77.03L112.81 80.59C113.801 82.4342 114.544 84.4012 115.02 86.44H119.63C120.426 86.44 121.189 86.7561 121.751 87.3187C122.314 87.8813 122.63 88.6443 122.63 89.44V95.69C122.63 96.4856 122.314 97.2487 121.751 97.8113C121.189 98.3739 120.426 98.69 119.63 98.69H114.63C114.022 100.704 113.147 102.628 112.03 104.41L115.29 107.67C115.852 108.232 116.167 108.995 116.167 109.79C116.167 110.585 115.852 111.347 115.29 111.91L110.87 116.33C110.308 116.889 109.548 117.202 108.755 117.202C107.962 117.202 107.202 116.889 106.64 116.33L103.08 112.77C101.219 113.763 99.2352 114.506 97.18 114.98V119.59C97.18 120.386 96.8639 121.149 96.3013 121.711C95.7387 122.274 94.9756 122.59 94.18 122.59H87.9C87.1043 122.59 86.3413 122.274 85.7787 121.711C85.2161 121.149 84.9 120.386 84.9 119.59V114.59C82.8871 113.975 80.964 113.097 79.18 111.98L75.91 115.24C75.3479 115.799 74.5876 116.112 73.795 116.112C73.0024 116.112 72.2421 115.799 71.68 115.24L67.26 110.82C66.7012 110.258 66.3876 109.498 66.3876 108.705C66.3876 107.912 66.7012 107.152 67.26 106.59L70.82 103.03C69.8231 101.174 69.0798 99.1934 68.61 97.14H64C63.2043 97.14 62.4413 96.8239 61.8787 96.2613C61.3161 95.6987 61 94.9356 61 94.14V87.89C61 87.0943 61.3161 86.3313 61.8787 85.7687C62.4413 85.2061 63.2043 84.89 64 84.89H69C69.6116 82.8725 70.4893 80.9456 71.61 79.16L68.34 75.9C67.7812 75.3379 67.4676 74.5775 67.4676 73.785C67.4676 72.9924 67.7812 72.2321 68.34 71.67L72.76 67.25C73.3221 66.6912 74.0824 66.3776 74.875 66.3776C75.6676 66.3776 76.4279 66.6912 76.99 67.25L80.56 70.81C82.417 69.8163 84.3976 69.0731 86.45 68.6V64C86.45 63.2043 86.7661 62.4413 87.3287 61.8787C87.8913 61.3161 88.6543 61 89.45 61H95.74C96.5356 61 97.2987 61.3161 97.8613 61.8787C98.4239 62.4413 98.74 63.2043 98.74 64V69C100.758 69.6096 102.685 70.4874 104.47 71.61L107.74 68.38C108.302 67.8182 109.065 67.5026 109.86 67.5026C110.655 67.5026 111.417 67.8182 111.98 68.38H111.95ZM91.82 79.51C94.2503 79.512 96.6255 80.2344 98.6452 81.5861C100.665 82.9377 102.239 84.8579 103.167 87.1037C104.096 89.3496 104.338 91.8204 103.863 94.2038C103.387 96.5871 102.216 98.7761 100.497 100.494C98.7776 102.212 96.5877 103.381 94.204 103.855C91.8202 104.328 89.3496 104.084 87.1045 103.154C84.8594 102.223 82.9405 100.648 81.5905 98.6269C80.2405 96.606 79.52 94.2303 79.52 91.8C79.52 90.1852 79.8382 88.5862 80.4565 87.0945C81.0747 85.6028 81.9809 84.2475 83.1232 83.1061C84.2655 81.9648 85.6215 81.0597 87.1137 80.4426C88.606 79.8256 90.2052 79.5087 91.82 79.51Z" fill="#DC2626"/>
</g>
<defs>
<clipPath id="clip0_402_2">
<rect width="122.88" height="122.88" fill="white"/>
</clipPath>
</defs>
</svg>
