<svg width="115" height="123" viewBox="0 0 115 123" fill="none" xmlns="http://www.w3.org/2000/svg">
<g clip-path="url(#clip0_403_14)">
<path d="M47.78 91.85C47.7 91.81 47.6 91.75 47.51 91.68C46.42 90.82 45.22 89.84 44.18 89C42.67 87.76 40.93 86.33 39.72 85.32C38.89 84.64 37.95 84.16 37.06 83.98C36.48 83.88 35.97 83.88 35.55 84.04C35.22 84.19 34.93 84.45 34.74 84.87C34.49 85.43 34.37 86.21 34.43 87.29C34.49 88.24 34.83 89.28 35.26 90.29C35.9 91.76 36.79 93.12 37.45 93.98C37.49 94.04 37.53 94.08 37.55 94.15L50.63 112.83C50.8 113.08 50.9 113.35 50.92 113.61C51.19 115.76 51.65 117.39 52.31 118.4C52.81 119.14 53.42 119.51 54.23 119.49H74.8C76.08 119.47 77.24 119.1 78.31 118.35C79.49 117.54 80.54 116.28 81.51 114.59C81.53 114.57 81.55 114.53 81.57 114.51C81.94 113.87 82.44 113.04 82.91 112.26C85 108.83 86.82 105.83 87.02 101.58L86.9 95.72C86.88 95.64 86.88 95.55 86.88 95.47C86.88 95.39 86.88 94.83 86.9 94.08C86.94 90.19 87 85.4 83.45 84.81H81.16C81.14 85.9 81.08 87.02 81.01 88.09C80.95 89.06 80.89 89.97 80.89 90.86C80.89 91.81 80.13 92.58 79.17 92.58C78.22 92.58 77.45 91.82 77.45 90.86C77.45 89.97 77.51 88.94 77.57 87.86C77.8 84.2 78.07 80.01 75.15 79.5H72.88C72.76 79.5 72.63 79.48 72.51 79.46C72.53 80.78 72.45 82.14 72.36 83.47C72.32 84.44 72.26 85.35 72.26 86.23C72.26 87.18 71.5 87.95 70.54 87.95C69.59 87.95 68.82 87.19 68.82 86.23C68.82 85.34 68.88 84.31 68.94 83.23C69.17 79.57 69.44 75.38 66.52 74.87H64.25C64.08 74.87 63.94 74.85 63.8 74.81V81.48C63.8 82.43 63.04 83.2 62.08 83.2C61.13 83.2 60.36 82.44 60.36 81.48V61.28C60.36 58.28 59.14 56.38 57.57 55.6C56.99 55.31 56.37 55.17 55.77 55.17C55.17 55.17 54.55 55.32 53.97 55.6C52.42 56.38 51.22 58.28 51.22 61.36V95.03C51.22 95.98 50.46 96.75 49.5 96.75C48.55 96.75 47.78 95.99 47.78 95.03V91.85ZM63.81 71.49C63.96 71.45 64.1 71.43 64.26 71.43H66.64C66.76 71.43 66.91 71.45 67.03 71.47C70.19 71.97 71.62 73.81 72.2 76.2C72.43 76.1 72.68 76.03 72.93 76.03H75.31C75.43 76.03 75.58 76.05 75.7 76.07C79.11 76.6 80.47 78.69 80.97 81.34C81.05 81.32 81.14 81.32 81.24 81.32H83.62C83.74 81.32 83.89 81.34 84.02 81.36C90.55 82.37 90.46 88.86 90.41 94.09V95.45L90.56 101.48V101.66C90.31 106.81 88.29 110.13 85.96 113.98C85.56 114.62 85.18 115.28 84.64 116.19C84.62 116.21 84.62 116.23 84.6 116.25C83.38 118.38 81.98 120.01 80.36 121.13C78.72 122.27 76.91 122.85 74.93 122.87H54.32C52.27 122.91 50.68 122.02 49.5 120.27C48.55 118.86 47.93 116.88 47.6 114.41L34.8 96.09L34.73 96.03C33.97 95.02 32.93 93.43 32.15 91.67C31.57 90.35 31.14 88.92 31.04 87.51C30.94 85.84 31.16 84.51 31.64 83.46C32.22 82.16 33.17 81.31 34.31 80.86C35.37 80.43 36.56 80.36 37.76 80.61C39.2 80.9 40.69 81.62 41.95 82.68C42.98 83.55 44.72 84.95 46.41 86.34L47.82 87.5V61.39C47.82 56.82 49.84 53.89 52.47 52.56C53.53 52.02 54.66 51.75 55.82 51.75C56.98 51.75 58.11 52.02 59.16 52.56C61.78 53.88 63.85 56.83 63.85 61.32V71.5L63.81 71.49ZM96.55 84.09C96.37 83.64 96.26 83.15 96.26 82.63C96.26 82.11 96.37 81.62 96.55 81.17C96.74 80.72 97.01 80.31 97.36 79.97L97.38 79.94C97.57 79.75 97.79 79.57 98.03 79.42C98.16 79.34 98.29 79.27 98.43 79.2V73.14H90.97C90.98 72.75 90.98 72.35 90.96 71.95C90.94 71.73 91.04 71.51 91.23 71.38C92 70.85 92.7 70.3 93.33 69.74H100.11C100.58 69.74 101 69.93 101.31 70.24C101.62 70.55 101.81 70.97 101.81 71.44V79.26C101.93 79.32 102.04 79.39 102.16 79.46C102.36 79.59 102.55 79.75 102.73 79.92L102.76 79.95C103.11 80.3 103.39 80.72 103.59 81.19C103.77 81.64 103.88 82.13 103.88 82.65C103.88 83.15 103.78 83.63 103.6 84.08L103.59 84.11C103.4 84.58 103.11 84.99 102.76 85.35C102.41 85.7 101.99 85.98 101.52 86.18C101.07 86.36 100.58 86.47 100.06 86.47C99.55 86.47 99.06 86.36 98.6 86.18C98.13 85.99 97.71 85.7 97.36 85.35C97.03 84.98 96.75 84.56 96.55 84.09ZM107.36 64.63H97.22C97.39 64.26 97.55 63.88 97.68 63.5C97.95 62.75 98.14 61.99 98.26 61.23H107.36C107.43 61.1 107.49 60.98 107.57 60.86C107.71 60.63 107.89 60.42 108.07 60.24C108.43 59.88 108.84 59.61 109.31 59.41C109.76 59.23 110.25 59.12 110.77 59.12C111.27 59.12 111.75 59.22 112.2 59.4L112.23 59.41C112.7 59.6 113.11 59.89 113.47 60.24C113.82 60.59 114.1 61.01 114.3 61.48C114.48 61.93 114.59 62.42 114.59 62.94C114.59 63.45 114.48 63.94 114.3 64.4C114.11 64.87 113.82 65.29 113.47 65.64C113.12 65.99 112.7 66.27 112.23 66.47C111.78 66.65 111.29 66.76 110.77 66.76C110.27 66.76 109.79 66.66 109.34 66.48L109.31 66.47C108.84 66.28 108.43 65.99 108.07 65.64C107.89 65.46 107.72 65.26 107.58 65.03L107.56 65C107.49 64.88 107.42 64.76 107.36 64.63ZM110.58 55.33H97.83C97.5 54.25 97.04 53.21 96.47 52.21L96.45 52.18C96.4 52.09 96.35 52.02 96.31 51.93H108.9V40.83C108.8 40.77 108.71 40.71 108.61 40.65C108.42 40.52 108.24 40.37 108.08 40.21C107.73 39.86 107.45 39.44 107.25 38.97C107.07 38.52 106.96 38.03 106.96 37.51C106.96 37 107.07 36.5 107.25 36.05C107.44 35.58 107.73 35.17 108.08 34.81C108.43 34.46 108.85 34.18 109.32 33.98C109.77 33.8 110.26 33.69 110.78 33.69C111.29 33.69 111.78 33.8 112.24 33.98C112.71 34.17 113.13 34.46 113.48 34.81C113.83 35.16 114.11 35.58 114.31 36.05C114.49 36.5 114.6 36.99 114.6 37.51C114.6 38.01 114.5 38.49 114.32 38.94L114.31 38.97C114.12 39.44 113.83 39.85 113.48 40.21C113.27 40.42 113.02 40.61 112.76 40.78C112.62 40.87 112.45 40.95 112.3 41.02V53.63C112.3 54.1 112.11 54.52 111.8 54.83C111.48 55.14 111.06 55.33 110.58 55.33ZM97.26 47.12H92.92C93.04 46.49 93.1 45.85 93.13 45.22C93.15 44.71 93.15 44.21 93.12 43.72H95.56V38.7C95.43 38.63 95.3 38.57 95.18 38.48C94.95 38.34 94.74 38.16 94.54 37.96C94.19 37.61 93.91 37.19 93.71 36.72C93.53 36.27 93.42 35.78 93.42 35.27C93.42 34.76 93.53 34.27 93.71 33.81C93.9 33.36 94.17 32.95 94.51 32.6L94.54 32.57C94.89 32.22 95.31 31.94 95.78 31.74C96.23 31.56 96.72 31.45 97.24 31.45C97.76 31.45 98.25 31.56 98.7 31.74C99.15 31.93 99.56 32.2 99.91 32.55L99.94 32.57C100.29 32.92 100.56 33.32 100.76 33.78L100.77 33.81C100.95 34.26 101.06 34.75 101.06 35.27C101.06 35.78 100.95 36.28 100.77 36.73C100.58 37.18 100.31 37.6 99.97 37.94L99.94 37.97C99.76 38.15 99.56 38.32 99.33 38.47C99.21 38.55 99.1 38.61 98.97 38.67V45.42C98.97 45.89 98.78 46.31 98.47 46.62C98.15 46.93 97.72 47.12 97.26 47.12ZM29.91 18.04C30.36 18.22 30.85 18.33 31.37 18.33C31.89 18.33 32.38 18.22 32.83 18.04C33.28 17.85 33.7 17.58 34.03 17.23L34.06 17.21C34.25 17.02 34.43 16.8 34.58 16.56C34.66 16.43 34.73 16.3 34.8 16.16H40.86V21.4C41.93 20.83 43.08 20.42 44.26 20.18V14.46C44.26 13.99 44.07 13.57 43.76 13.26C43.45 12.95 43.03 12.76 42.56 12.76H34.74C34.68 12.64 34.62 12.53 34.54 12.41C34.41 12.21 34.25 12.02 34.08 11.84L34.05 11.81C33.7 11.46 33.28 11.18 32.81 10.98C32.36 10.8 31.87 10.69 31.35 10.69C30.85 10.69 30.36 10.79 29.92 10.97L29.89 10.98C29.42 11.17 29.01 11.46 28.65 11.81C28.3 12.16 28.02 12.58 27.82 13.05C27.64 13.5 27.53 13.99 27.53 14.51C27.53 15.02 27.64 15.51 27.82 15.97C28.01 16.44 28.3 16.86 28.65 17.21C29.03 17.56 29.44 17.84 29.91 18.04ZM49.38 7.24V20.37C50.51 20.7 51.62 21.22 52.66 21.96L52.78 22.05C52.78 22.02 52.79 21.99 52.79 21.96V7.24C52.91 7.17 53.04 7.11 53.16 7.03C53.39 6.89 53.6 6.71 53.78 6.53C54.13 6.17 54.41 5.76 54.61 5.29C54.79 4.84 54.9 4.35 54.9 3.83C54.9 3.33 54.8 2.85 54.62 2.4L54.61 2.37C54.42 1.9 54.13 1.49 53.78 1.13C53.43 0.78 53.01 0.5 52.54 0.3C52.09 0.12 51.6 0.01 51.08 0.01C50.57 0.01 50.08 0.12 49.62 0.3C49.15 0.49 48.73 0.78 48.38 1.13C48.03 1.48 47.75 1.9 47.55 2.37C47.37 2.82 47.26 3.31 47.26 3.83C47.26 4.33 47.36 4.81 47.54 5.26L47.55 5.29C47.74 5.76 48.03 6.17 48.38 6.53C48.56 6.71 48.76 6.88 48.99 7.02L49.01 7.03C49.13 7.1 49.25 7.17 49.38 7.24ZM58.67 4.01V23.21C59.13 22.74 59.62 22.33 60.12 21.96C60.74 21.51 61.4 21.13 62.07 20.85V5.7H73.17C73.23 5.8 73.29 5.89 73.35 5.99C73.48 6.18 73.63 6.36 73.79 6.52C74.14 6.87 74.56 7.15 75.03 7.35C75.48 7.53 75.97 7.64 76.49 7.64C77 7.64 77.5 7.53 77.95 7.35C78.42 7.16 78.84 6.87 79.19 6.52C79.54 6.17 79.82 5.75 80.02 5.28C80.2 4.83 80.31 4.34 80.31 3.82C80.31 3.31 80.2 2.82 80.02 2.36C79.83 1.89 79.54 1.47 79.19 1.12C78.82 0.77 78.4 0.49 77.93 0.29C77.49 0.11 77 0 76.49 0C75.99 0 75.51 0.1 75.06 0.28L75.03 0.29C74.56 0.48 74.15 0.77 73.79 1.12C73.58 1.33 73.39 1.58 73.22 1.84C73.13 1.98 73.05 2.15 72.98 2.3H60.38C59.91 2.3 59.49 2.49 59.18 2.8C58.87 3.11 58.67 3.54 58.67 4.01ZM66.88 17.34V19.97C67.23 19.99 67.58 20.02 67.93 20.08C68.74 20.2 69.53 20.4 70.28 20.68V19.06H75.3C75.37 19.19 75.43 19.32 75.52 19.44C75.66 19.67 75.84 19.88 76.04 20.08C76.39 20.43 76.81 20.71 77.28 20.91C77.73 21.09 78.22 21.2 78.73 21.2C79.24 21.2 79.73 21.09 80.19 20.91C80.64 20.72 81.06 20.45 81.4 20.11L81.43 20.08C81.78 19.73 82.06 19.31 82.26 18.84C82.44 18.39 82.55 17.9 82.55 17.38C82.55 16.86 82.44 16.37 82.26 15.92C82.07 15.47 81.8 15.05 81.45 14.71L81.43 14.68C81.08 14.33 80.68 14.06 80.22 13.86L80.19 13.85C79.74 13.67 79.25 13.56 78.73 13.56C78.22 13.56 77.72 13.67 77.27 13.85C76.82 14.04 76.41 14.31 76.06 14.65L76.03 14.68C75.85 14.86 75.68 15.06 75.53 15.3C75.45 15.42 75.39 15.53 75.33 15.66H68.58C68.11 15.66 67.69 15.85 67.38 16.16C67.07 16.44 66.88 16.86 66.88 17.34ZM18.04 33.82C18.22 34.27 18.33 34.76 18.33 35.28C18.33 35.8 18.22 36.29 18.04 36.74C17.85 37.19 17.58 37.6 17.23 37.94L17.21 37.97C17.02 38.16 16.8 38.34 16.56 38.49C16.43 38.57 16.3 38.64 16.16 38.71V44.77H22.45V45.07C22.45 45.3 22.46 45.54 22.47 45.79C22.49 46 22.39 46.21 22.21 46.35C21.38 46.94 20.64 47.55 19.97 48.18H14.47C14 48.18 13.58 47.99 13.27 47.68C12.96 47.37 12.77 46.95 12.77 46.48V38.66C12.65 38.6 12.54 38.53 12.42 38.46C12.22 38.33 12.03 38.17 11.85 38L11.82 37.97C11.47 37.62 11.19 37.2 10.99 36.73C10.81 36.28 10.7 35.79 10.7 35.27C10.7 34.77 10.8 34.29 10.98 33.84L11 33.81C11.19 33.34 11.48 32.93 11.83 32.57C12.18 32.22 12.6 31.94 13.07 31.74C13.52 31.56 14.01 31.45 14.53 31.45C15.04 31.45 15.53 31.56 15.99 31.74C16.46 31.93 16.88 32.22 17.23 32.57C17.56 32.93 17.84 33.35 18.04 33.82ZM7.24 53.28H16.27C16.12 53.63 15.98 53.98 15.86 54.33C15.59 55.11 15.4 55.89 15.28 56.67H7.24C7.17 56.8 7.11 56.92 7.03 57.04C6.89 57.27 6.71 57.48 6.53 57.66C6.17 58.02 5.76 58.29 5.29 58.49C4.84 58.67 4.35 58.78 3.83 58.78C3.33 58.78 2.85 58.68 2.4 58.5H2.36C1.89 58.31 1.48 58.02 1.12 57.67C0.77 57.32 0.49 56.9 0.29 56.43C0.11 55.98 0 55.49 0 54.97C0 54.46 0.11 53.97 0.29 53.51C0.48 53.04 0.77 52.62 1.12 52.27C1.47 51.92 1.89 51.64 2.36 51.44C2.81 51.26 3.3 51.15 3.82 51.15C4.32 51.15 4.8 51.25 5.25 51.43L5.28 51.44C5.75 51.63 6.16 51.92 6.52 52.27C6.7 52.45 6.87 52.65 7.01 52.88L7.03 52.91C7.1 53.03 7.17 53.16 7.24 53.28ZM4.01 62.59H15.76C16.13 63.75 16.65 64.88 17.33 65.94V65.95L17.35 65.99H5.7V77.09C5.8 77.15 5.89 77.21 5.99 77.27C6.18 77.4 6.36 77.55 6.52 77.71C6.87 78.06 7.15 78.48 7.35 78.95C7.53 79.4 7.64 79.89 7.64 80.41C7.64 80.92 7.53 81.42 7.35 81.87C7.16 82.34 6.87 82.75 6.52 83.11C6.17 83.46 5.75 83.74 5.28 83.94C4.83 84.12 4.34 84.23 3.82 84.23C3.31 84.23 2.82 84.12 2.36 83.94C1.89 83.75 1.47 83.46 1.12 83.11C0.77 82.74 0.49 82.31 0.29 81.85C0.11 81.4 0 80.91 0 80.39C0 79.89 0.1 79.41 0.28 78.96L0.29 78.93C0.48 78.46 0.77 78.05 1.12 77.69C1.33 77.48 1.58 77.29 1.84 77.12C1.98 77.03 2.15 76.95 2.3 76.88V64.28C2.3 63.81 2.49 63.39 2.8 63.08C3.11 62.78 3.54 62.59 4.01 62.59ZM17.34 70.79H20.51C20.4 71.42 20.35 72.05 20.33 72.66C20.31 73.18 20.32 73.69 20.36 74.19H19.04V79.21C19.17 79.28 19.3 79.34 19.42 79.43C19.65 79.57 19.86 79.75 20.06 79.95C20.41 80.3 20.69 80.72 20.89 81.19C21.07 81.64 21.18 82.13 21.18 82.65C21.18 83.17 21.07 83.65 20.89 84.11C20.7 84.56 20.43 84.97 20.09 85.32L20.06 85.35C19.71 85.7 19.29 85.98 18.82 86.18C18.37 86.36 17.88 86.47 17.36 86.47C16.84 86.47 16.35 86.36 15.9 86.18C15.45 85.99 15.04 85.72 14.69 85.37L14.66 85.35C14.31 85 14.04 84.6 13.84 84.14L13.83 84.11C13.65 83.66 13.54 83.17 13.54 82.65C13.54 82.14 13.65 81.64 13.83 81.19C14.02 80.74 14.29 80.33 14.63 79.98L14.66 79.95C14.84 79.77 15.04 79.6 15.27 79.45C15.39 79.37 15.5 79.31 15.63 79.25V72.5C15.63 72.03 15.82 71.61 16.13 71.3C16.44 70.97 16.86 70.79 17.34 70.79Z" fill="black"/>
<path d="M59.7605 25.8361C58.7205 26.5861 57.7605 27.5961 56.9305 28.9061C56.8905 28.9761 56.8305 29.0261 56.7705 29.0661C56.5105 29.2261 56.1605 29.1561 56.0005 28.9061C55.1605 27.5961 54.2005 26.5861 53.1705 25.8361C52.0605 25.0261 50.8505 24.5161 49.6105 24.2661H49.5905C48.3805 24.0161 47.1405 24.0161 45.9505 24.2261C44.6905 24.4461 43.4705 24.9061 42.3805 25.5461C41.2905 26.1761 40.3105 26.9961 39.5005 27.9361C38.7105 28.8461 38.0805 29.8961 37.6605 31.0161C37.5905 31.1861 37.5305 31.3761 37.4805 31.5661C37.4305 31.7361 37.3705 31.9361 37.3405 32.1261C37.2905 32.3761 37.0805 32.5561 36.8105 32.5661C35.5205 32.7561 34.2405 33.2261 33.0505 33.9261C31.8405 34.6461 30.7105 35.6261 29.7405 36.7961C28.7805 37.9661 27.9705 39.3561 27.4005 40.8861C26.8605 42.3261 26.5405 43.9161 26.4705 45.5961C26.4605 45.8161 26.4605 46.0261 26.4605 46.2461C26.4605 46.4461 26.4705 46.6561 26.4705 46.8761C26.4805 47.0561 26.4005 47.2461 26.2405 47.3661C25.4505 47.9361 24.7405 48.5161 24.1105 49.1261C23.4705 49.7461 22.9005 50.3961 22.4105 51.0561C21.6105 52.1461 21.0305 53.2761 20.6305 54.4161C20.2205 55.6061 20.0205 56.8261 20.0005 58.0261C19.9905 59.1761 20.1405 60.3261 20.4705 61.4261C20.8005 62.5461 21.3005 63.6461 21.9405 64.6661C22.3105 65.2561 22.7205 65.8261 23.1705 66.3661C23.6305 66.9161 24.1305 67.4361 24.6705 67.9261C24.8005 68.0561 24.8805 68.2561 24.8405 68.4461C24.6905 69.1761 24.6105 69.8961 24.5805 70.6061C24.5605 71.3361 24.6005 72.0561 24.7005 72.7561C24.8805 74.0461 25.2605 75.2761 25.7905 76.4061C26.3505 77.6161 27.0805 78.7261 27.9205 79.6961C28.1605 79.9761 28.4205 80.2561 28.6805 80.5161L29.8505 76.1261C29.6005 75.7461 29.3805 75.3461 29.1905 74.9261C28.8105 74.1061 28.5405 73.2361 28.4005 72.3261V72.3061C28.3005 71.6361 28.2805 70.9361 28.3605 70.2161C28.4305 69.5461 28.5705 68.8461 28.8105 68.1461L28.8205 68.1161C28.9505 67.7261 28.9405 67.3061 28.8305 66.9461L28.8205 66.9261C28.6905 66.5461 28.4505 66.2061 28.1005 65.9661L28.0805 65.9461C27.4705 65.4861 26.9105 64.9961 26.4205 64.4561C25.9205 63.9161 25.4805 63.3461 25.1105 62.7461C24.6705 62.0261 24.3205 61.2561 24.0905 60.4661C23.8705 59.6961 23.7505 58.9061 23.7605 58.1061C23.7705 57.2861 23.9105 56.4561 24.2005 55.6361C24.4805 54.8561 24.8805 54.0761 25.4405 53.3161C25.9105 52.6761 26.4905 52.0361 27.1805 51.4361C27.8405 50.8461 28.5905 50.2961 29.4605 49.7661C29.7805 49.5761 30.0105 49.3061 30.1605 48.9961L30.1705 48.9661C30.3205 48.6461 30.3805 48.2961 30.3305 47.9361C30.3205 47.8961 30.3205 47.8561 30.3205 47.8161V47.7961C30.2705 47.4561 30.2405 47.1261 30.2205 46.7961C30.2005 46.4361 30.2005 46.0861 30.2105 45.7361C30.2605 44.4761 30.5005 43.2961 30.8905 42.2261C31.3105 41.0861 31.9105 40.0561 32.6205 39.1761C33.2105 38.4561 33.8805 37.8461 34.5805 37.3761C35.2805 36.9061 36.0205 36.5661 36.7805 36.3761C37.0705 36.2861 37.3905 36.4561 37.4705 36.7461C38.0705 38.6261 38.8205 39.8161 40.2505 41.1461L40.3105 41.1961C40.6705 41.5261 41.1305 41.6761 41.5805 41.6561C42.0305 41.6361 42.4705 41.4561 42.8005 41.0961L42.8305 41.0561C43.1605 40.6961 43.3105 40.2361 43.2905 39.7861C43.2705 39.3361 43.0805 38.8861 42.7105 38.5361C41.5605 37.4661 41.3005 36.8061 40.9505 35.7261C40.5505 34.4861 40.6105 33.2761 41.0105 32.1961C41.2805 31.4561 41.7005 30.7661 42.2405 30.1561C42.7705 29.5461 43.4105 29.0161 44.1205 28.5961L44.1505 28.5761C44.8805 28.1561 45.6705 27.8461 46.4905 27.6961C47.2705 27.5561 48.0705 27.5461 48.8405 27.7061C49.9405 27.9361 51.0105 28.5161 51.9605 29.5161C52.8005 30.3861 53.5405 31.6061 54.1205 33.1961L54.1305 33.2161C54.3305 33.8361 54.9905 34.2061 55.7505 34.3461C56.1005 34.4161 56.4605 34.4361 56.8205 34.4161H56.8305C57.1905 34.3961 57.5405 34.3261 57.8705 34.2261C58.4505 34.0361 58.9005 33.7261 59.0005 33.3361V33.1161C59.0005 32.0061 59.6605 30.8161 60.5805 29.8461C61.5805 28.7861 62.9105 27.9561 64.0405 27.7261C64.7505 27.5861 65.4705 27.5761 66.1705 27.6761C66.9005 27.7961 67.6105 28.0261 68.2805 28.3561L68.3405 28.3761C69.0205 28.7261 69.6505 29.1661 70.1905 29.6861C70.7305 30.2061 71.1905 30.7961 71.5405 31.4361C72.0905 32.4461 72.3405 33.5961 72.1605 34.8161C72.0105 35.8861 71.9705 36.5561 71.0705 37.6261L71.0605 37.6361C70.7405 38.0061 70.6105 38.4861 70.6505 38.9461C70.6905 39.3861 70.8905 39.8161 71.2505 40.1261L71.3105 40.1761C71.6805 40.4861 72.1505 40.6061 72.6005 40.5661C73.0405 40.5261 73.4705 40.3261 73.7805 39.9661L73.8305 39.8961C74.7505 38.7961 75.0505 37.9961 75.4705 36.6061C75.5405 36.3961 75.7305 36.2361 75.9705 36.2161C76.3705 36.1861 76.7905 36.2061 77.2005 36.2761C77.6205 36.3461 78.0505 36.4461 78.4705 36.5961C79.2705 36.8661 80.0705 37.2761 80.8105 37.7961C81.5405 38.3061 82.2305 38.9261 82.8305 39.6461L82.8405 39.6661C83.4605 40.4061 83.9905 41.2361 84.3905 42.1361C84.7605 42.9861 85.0105 43.8861 85.1205 44.8361C85.1905 45.4661 85.1905 46.1361 85.1105 46.8061C85.0405 47.4261 84.9005 48.0761 84.6805 48.7161L84.6705 48.7561C84.5405 49.1561 84.5505 49.5861 84.6705 49.9561C84.8005 50.3361 85.0505 50.6861 85.4105 50.9161L85.4405 50.9361C86.1105 51.4361 86.7105 51.9861 87.2305 52.5561C87.7705 53.1461 88.2305 53.7761 88.6105 54.4261C89.0305 55.1461 89.3605 55.8961 89.5605 56.6661C89.7705 57.4261 89.8705 58.1961 89.8405 58.9561C89.8205 59.7461 89.6705 60.5361 89.3905 61.3061C89.1205 62.0461 88.7305 62.7761 88.2105 63.4861L88.2005 63.4961C87.7305 64.1361 87.1305 64.7761 86.4305 65.3761C85.7605 65.9561 84.9805 66.4961 84.0905 67.0261L84.0605 67.0461C83.7005 67.2461 83.4405 67.5561 83.2905 67.9161C83.1405 68.2761 83.0905 68.6661 83.1705 69.0461L83.1805 69.1261C83.3405 70.3961 83.2905 71.6161 83.0905 72.7461L85.3005 77.6961C85.7905 76.7761 86.1905 75.7961 86.4905 74.7461C86.9105 73.2561 87.1105 71.6461 87.0505 69.9461C87.0305 69.7561 87.1205 69.5661 87.2905 69.4461C88.1205 68.8761 88.8505 68.2861 89.5005 67.6761C90.1605 67.0461 90.7505 66.3861 91.2505 65.7061C92.0205 64.6661 92.5905 63.5961 92.9805 62.4861C93.3805 61.3461 93.5905 60.1761 93.6305 59.0161C93.6605 57.8961 93.5205 56.7761 93.2405 55.6861C92.9505 54.5761 92.5005 53.5161 91.9105 52.5061L91.8905 52.4861C91.5105 51.8261 91.0505 51.1861 90.5505 50.5761C90.0505 49.9561 89.4805 49.3861 88.8805 48.8361C88.7405 48.7161 88.6605 48.5061 88.7005 48.3061C88.8305 47.6461 88.9205 46.9761 88.9505 46.3261C88.9805 45.6661 88.9605 45.0061 88.8905 44.3661C88.7505 43.0261 88.3905 41.7661 87.8705 40.5761C87.3205 39.3261 86.5905 38.1761 85.7405 37.1661C84.9105 36.1861 83.9605 35.3261 82.9405 34.6161C81.9205 33.9061 80.8405 33.3461 79.7305 32.9761L79.7005 32.9661C79.1105 32.7661 78.5205 32.6161 77.9305 32.5261H77.9105C77.3305 32.4261 76.7605 32.3961 76.1905 32.3961C75.9305 32.4161 75.6805 32.2461 75.6105 31.9761C75.5105 31.5861 75.3905 31.1961 75.2405 30.8261C75.0905 30.4461 74.9105 30.0661 74.7105 29.6961C74.1905 28.7361 73.5105 27.8561 72.7105 27.0961C71.8905 26.3161 70.9605 25.6561 69.9605 25.1461C68.9305 24.6261 67.8105 24.2661 66.6505 24.0961C65.5505 23.9461 64.4305 23.9661 63.3205 24.1961C62.1005 24.5261 60.8805 25.0361 59.7605 25.8361Z" fill="#DC2626"/>
</g>
<defs>
<clipPath id="clip0_403_14">
<rect width="114.59" height="122.88" fill="white"/>
</clipPath>
</defs>
</svg>
