<svg width="123" height="122" viewBox="0 0 123 122" fill="none" xmlns="http://www.w3.org/2000/svg">
<g clip-path="url(#clip0_403_37)">
<path d="M32.18 105.73C32.88 104.62 34.34 104.29 35.45 104.99C36.56 105.69 36.89 107.15 36.19 108.26L31.38 115.94C30.68 117.05 29.22 117.38 28.11 116.68C27 115.98 26.67 114.52 27.37 113.41L32.18 105.73ZM6.57 75.32C6.9 76.59 6.15 77.89 4.88 78.22C3.61 78.55 2.31 77.8 1.98 76.53C1.59 75.03 1.25 73.52 0.96 71.99C0.68 70.47 0.46 68.96 0.3 67.45C0.2 66.47 0.12 65.47 0.08 64.46C0.02 63.37 0 62.36 0 61.44C0 44.47 6.88 29.11 18 18C29.11 6.88 44.47 0 61.44 0C78.41 0 93.78 6.83 104.91 17.91C116.02 28.97 122.88 44.27 122.88 61.21C122.88 62.52 121.81 63.59 120.5 63.59C119.19 63.59 118.12 62.52 118.12 61.21C118.12 45.57 111.79 31.47 101.56 21.28C91.3 11.06 77.12 4.76 61.44 4.76C45.79 4.76 31.62 11.1 21.36 21.36C11.11 31.62 4.76 45.79 4.76 61.44C4.76 62.48 4.78 63.41 4.82 64.24C4.86 65.15 4.93 66.06 5.02 66.97C5.17 68.37 5.37 69.76 5.63 71.14C5.89 72.51 6.2 73.9 6.57 75.32ZM12.97 96.87C11.98 97.73 10.48 97.62 9.62 96.63C8.76 95.64 8.87 94.14 9.86 93.28C10.46 92.76 10.99 92.14 11.44 91.42C11.91 90.68 12.3 89.81 12.61 88.82C14.2 83.76 13.24 78.48 12.27 73.13C11.61 69.49 10.94 65.82 10.97 61.99C11.09 42.39 23.35 26.41 39.39 18.22C46.12 14.78 53.54 12.72 61.02 12.33C68.53 11.94 76.1 13.26 83.09 16.58C98.7 24 111.38 41.37 114.02 72.13C114.13 73.44 113.15 74.59 111.84 74.7C110.53 74.81 109.38 73.83 109.27 72.52C106.8 43.73 95.25 27.63 81.06 20.88C74.8 17.9 68.01 16.73 61.26 17.07C54.47 17.42 47.71 19.31 41.55 22.45C26.96 29.89 15.82 44.34 15.71 62C15.69 65.4 16.32 68.86 16.94 72.29C18.02 78.23 19.08 84.09 17.15 90.24C16.72 91.62 16.15 92.86 15.46 93.96C14.76 95.07 13.92 96.04 12.97 96.87ZM109.22 82.01C109.22 80.69 110.29 79.63 111.6 79.63C112.91 79.63 113.98 80.7 113.98 82.01V91.99C113.98 93.31 112.91 94.37 111.6 94.37C110.29 94.37 109.22 93.3 109.22 91.99V82.01ZM38.95 98.15C38.72 99.44 37.49 100.31 36.2 100.08C34.91 99.85 34.04 98.62 34.27 97.33C34.82 94.25 35.13 90.8 35.24 87.04C35.35 83.23 35.26 79.06 35 74.6C34.95 73.64 34.86 72.45 34.78 71.29C34.24 63.7 33.81 57.58 38.25 49.69C39.23 47.95 40.4 46.33 41.8 44.85C43.2 43.37 44.81 42.03 46.64 40.86C46.76 40.78 46.88 40.72 47.01 40.67C49.72 39.37 52.41 38.36 55.1 37.7C57.87 37.02 60.62 36.72 63.33 36.87C64.64 36.94 65.65 38.05 65.58 39.36C65.51 40.67 64.4 41.68 63.09 41.61C60.84 41.49 58.55 41.74 56.22 42.31C53.9 42.88 51.52 43.77 49.1 44.93C47.63 45.88 46.35 46.94 45.26 48.1C44.14 49.29 43.19 50.59 42.4 52.01C38.66 58.67 39.04 64.15 39.52 70.95C39.59 71.95 39.66 72.99 39.74 74.33C40 78.87 40.09 83.17 39.98 87.16C39.85 91.22 39.53 94.9 38.95 98.15ZM72.44 44.51C71.32 43.83 70.97 42.36 71.65 41.25C72.33 40.13 73.79 39.78 74.91 40.46C75.64 40.91 76.35 41.39 77.04 41.91C77.72 42.42 78.39 42.98 79.06 43.59C88.12 51.82 91.19 65.05 91.39 78.89C91.58 92.37 89.05 106.43 86.73 116.8C86.45 118.08 85.18 118.89 83.9 118.6C82.62 118.32 81.81 117.05 82.1 115.77C84.36 105.65 86.84 91.96 86.65 78.94C86.47 66.28 83.77 54.29 75.86 47.1C75.31 46.6 74.74 46.13 74.17 45.7C73.6 45.25 73.02 44.86 72.44 44.51ZM43.15 119.69C42.39 120.76 40.91 121.02 39.84 120.26C38.77 119.5 38.51 118.02 39.27 116.95C40.95 114.58 42.37 111.98 43.53 109.16C44.69 106.32 45.59 103.23 46.21 99.89C47.37 93.66 46.82 85.72 46.29 78.22C46.11 75.69 45.94 73.22 45.83 70.68C45.67 66.97 45.6 63.33 46.29 60.02C47.04 56.41 48.66 53.28 51.91 51C52.64 50.49 53.43 50.03 54.28 49.64C55.13 49.25 56.05 48.9 57.04 48.62C57.78 48.41 58.51 48.24 59.22 48.12C64.09 47.29 67.95 48.55 70.93 51.15C73.76 53.62 75.68 57.26 76.86 61.39C77.21 62.63 77.5 63.92 77.73 65.24C77.85 65.96 77.96 66.69 78.04 67.42C78.12 68.14 78.19 68.88 78.24 69.64C78.74 77.18 78.41 86.59 77.39 95.8C76.41 104.63 74.79 113.33 72.64 120.1C72.24 121.35 70.91 122.04 69.66 121.65C68.41 121.25 67.72 119.92 68.11 118.67C70.15 112.24 71.7 103.86 72.65 95.29C73.64 86.34 73.96 77.23 73.48 69.95C73.44 69.32 73.38 68.66 73.3 67.98C73.23 67.34 73.13 66.7 73.02 66.07C72.82 64.93 72.57 63.81 72.27 62.72C71.33 59.41 69.87 56.57 67.79 54.76C65.87 53.09 63.32 52.29 60.02 52.85C59.49 52.94 58.93 53.07 58.34 53.24C57.57 53.46 56.88 53.71 56.27 54C55.65 54.29 55.1 54.6 54.63 54.93C52.54 56.39 51.47 58.52 50.95 61.02C50.37 63.81 50.44 67.12 50.58 70.51C50.68 72.76 50.86 75.32 51.04 77.94C51.58 85.72 52.16 93.95 50.88 100.79C50.2 104.44 49.21 107.83 47.92 110.99C46.64 114.11 45.04 117.02 43.15 119.69Z" fill="black"/>
<path d="M18.948 105.117C17.968 105.987 16.468 105.897 15.598 104.917C14.728 103.937 14.818 102.437 15.798 101.567C18.748 98.9666 20.898 95.6066 22.138 91.3966C23.418 87.0566 23.738 81.7866 22.988 75.4766C21.608 68.6966 21.358 62.4366 22.168 56.7866C23.008 50.8766 25.008 45.6366 28.058 41.1566C28.798 40.0766 30.278 39.7966 31.358 40.5366C32.438 41.2766 32.718 42.7566 31.978 43.8366C29.338 47.7066 27.608 52.2766 26.868 57.4566C26.138 62.5866 26.368 68.2966 27.638 74.5266C27.668 74.6466 27.698 74.7666 27.708 74.8866C28.548 81.8566 28.158 87.7666 26.698 92.7366C25.198 97.8366 22.568 101.917 18.948 105.117ZM43.118 33.5266C41.978 34.1866 40.528 33.7966 39.868 32.6566C39.208 31.5166 39.598 30.0666 40.738 29.4066C43.398 27.8666 46.238 26.6466 49.168 25.7566C57.208 23.3166 65.938 23.3866 73.878 26.1666C81.858 28.9666 89.028 34.4866 93.908 42.9366C95.538 45.7466 96.908 48.8966 97.968 52.3866C99.478 57.3666 100.508 62.9266 101.038 69.0366C101.558 75.0466 101.588 81.6466 101.128 88.8266C101.128 88.8966 101.118 88.9566 101.108 89.0266L99.448 105.407C99.318 106.707 98.158 107.667 96.848 107.537C95.548 107.407 94.588 106.247 94.718 104.937L96.378 88.5366V88.5266C96.818 81.6166 96.788 75.2366 96.288 69.4266C95.788 63.6066 94.828 58.3766 93.428 53.7666C92.488 50.6566 91.258 47.8466 89.798 45.3166C85.528 37.9166 79.268 33.0866 72.318 30.6466C65.328 28.1966 57.638 28.1366 50.548 30.2866C47.978 31.0866 45.488 32.1566 43.118 33.5266ZM58.378 60.7066C58.138 59.4166 58.998 58.1766 60.288 57.9466C61.578 57.7066 62.818 58.5666 63.048 59.8566C64.258 66.3766 64.838 72.9666 64.858 79.5866C64.878 86.1766 64.338 92.7966 63.318 99.4266C63.118 100.717 61.908 101.607 60.608 101.407C59.318 101.207 58.428 99.9966 58.628 98.6966C59.618 92.3166 60.138 85.9366 60.118 79.5866C60.098 73.2566 59.538 66.9566 58.378 60.7066ZM55.658 106.867C55.938 105.587 57.208 104.777 58.488 105.067C59.768 105.347 60.578 106.617 60.288 107.897L58.208 117.267C57.928 118.547 56.658 119.357 55.378 119.067C54.098 118.787 53.288 117.517 53.578 116.237L55.658 106.867Z" fill="#DC2626"/>
</g>
<defs>
<clipPath id="clip0_403_37">
<rect width="122.88" height="121.74" fill="white"/>
</clipPath>
</defs>
</svg>
