<svg width="121" height="123" viewBox="0 0 121 123" fill="none" xmlns="http://www.w3.org/2000/svg">
<g clip-path="url(#clip0_403_46)">
<path d="M12.94 22.06C13.0741 21.9845 13.2192 21.9305 13.37 21.9L80.94 6.90004C81.6239 5.55877 82.5781 4.37358 83.7424 3.41904C84.9067 2.4645 86.256 1.76128 87.7053 1.35362C89.1546 0.945969 90.6727 0.842704 92.1638 1.05033C93.655 1.25795 95.0871 1.77197 96.37 2.56004L108.22 4.22448e-05C108.308 -0.0161932 108.398 -0.0129659 108.484 0.00949645C108.571 0.0319588 108.651 0.0731088 108.72 0.130042L120.63 9.90004C120.739 9.98975 120.814 10.1146 120.841 10.2532C120.868 10.3918 120.847 10.5356 120.78 10.66L119.1 13.66C119.028 13.7896 118.91 13.8872 118.769 13.9335C118.628 13.9799 118.475 13.9715 118.34 13.91L106 8.16004L101.54 11.87C101.532 14.7419 100.385 17.4933 98.35 19.52C98.13 19.74 97.89 19.96 97.65 20.16L97.92 26.1L110.36 32.1C110.426 32.1408 110.483 32.1942 110.527 32.2573C110.572 32.3203 110.604 32.3917 110.621 32.4671C110.637 32.5426 110.639 32.6207 110.625 32.6967C110.611 32.7728 110.582 32.8453 110.54 32.91L108.8 35.64C108.741 35.7495 108.65 35.8381 108.539 35.8936C108.428 35.9492 108.303 35.9689 108.18 35.95L93.29 33.35C93.1951 33.3357 93.1052 33.2981 93.0284 33.2405C92.9516 33.1829 92.8903 33.1072 92.85 33.02L87.9 22.36C87.5235 22.2612 87.1529 22.141 86.79 22L43.69 36.48L72.09 49.91H72.17C76.2612 50.6718 79.9565 52.8422 82.6144 56.0444C85.2723 59.2466 86.7249 63.2785 86.72 67.44C86.72 67.66 86.72 67.89 86.72 68.11V68.18L90.72 105.39H91.55C94.4959 105.401 97.3182 106.576 99.4014 108.659C101.484 110.742 102.659 113.564 102.67 116.51V122C102.67 122.236 102.576 122.462 102.409 122.629C102.242 122.796 102.016 122.89 101.78 122.89H23.15C22.9139 122.89 22.6876 122.796 22.5207 122.629C22.3537 122.462 22.26 122.236 22.26 122V116.52C22.2705 113.574 23.4455 110.752 25.5286 108.669C27.6117 106.586 30.434 105.411 33.38 105.4H34.52L34.58 105.24L50.36 68.24L7.83998 45.6C7.68315 45.5221 7.54369 45.4132 7.42998 45.28C5.59901 44.5147 3.98459 43.3104 2.72919 41.7735C1.47379 40.2366 0.616026 38.4143 0.23159 36.4674C-0.152846 34.5205 -0.0521287 32.5089 0.524853 30.6102C1.10184 28.7114 2.13734 26.9839 3.53998 25.58C4.65656 24.4462 5.98751 23.5458 7.45536 22.9312C8.92321 22.3166 10.4986 22.0001 12.09 22C12.38 22 12.66 22 12.94 22V22.06ZM79.94 10.14L18.39 23.8C19.2076 24.3025 19.9628 24.9 20.64 25.58C21.7627 26.7019 22.6533 28.034 23.2609 29.5002C23.8685 30.9664 24.1813 32.5379 24.1813 34.125C24.1813 35.7122 23.8685 37.2837 23.2609 38.7499C22.6533 40.2161 21.7627 41.5482 20.64 42.67C19.0224 44.2998 16.9713 45.4312 14.73 45.93L51.27 65.4C51.7303 61.4143 53.5281 57.7023 56.37 54.87C58.8294 52.4057 61.9592 50.7191 65.37 50.02L39.11 37.58C38.9286 37.496 38.7665 37.3753 38.634 37.2255C38.5015 37.0758 38.4014 36.9003 38.34 36.71C38.2162 36.3387 38.2446 35.9335 38.4189 35.583C38.5932 35.2326 38.8992 34.9654 39.27 34.84L83.46 20L82.94 19.52C81.9292 18.5091 81.128 17.3084 80.5823 15.9871C80.0366 14.6657 79.7571 13.2496 79.76 11.82C79.7594 11.2579 79.7995 10.6964 79.88 10.14H79.94ZM96.66 5.80004C95.2666 4.40416 93.4321 3.53493 91.4694 3.34061C89.5067 3.14629 87.5374 3.63893 85.8974 4.73449C84.2573 5.83005 83.0482 7.46067 82.4762 9.3482C81.9042 11.2357 82.0047 13.2632 82.7607 15.0849C83.5167 16.9066 84.8813 18.4095 86.6217 19.3374C88.3621 20.2653 90.3705 20.5606 92.3043 20.173C94.2382 19.7854 95.9776 18.7389 97.226 17.212C98.4744 15.6851 99.1544 13.7723 99.15 11.8C99.1482 9.54903 98.2526 7.39086 96.66 5.80004ZM18.55 27.67C17.0562 26.173 15.0895 25.2403 12.985 25.0309C10.8806 24.8215 8.76865 25.3483 7.00913 26.5216C5.24962 27.6949 3.95142 29.4421 3.3358 31.4653C2.72018 33.4886 2.82522 35.6627 3.63303 37.6172C4.44084 39.5717 5.90143 41.1855 7.76586 42.1837C9.63029 43.182 11.7832 43.5027 13.8576 43.0914C15.9321 42.6801 17.7997 41.5621 19.1422 39.928C20.4847 38.2939 21.219 36.2449 21.22 34.13C21.2211 32.9307 20.9858 31.7428 20.5277 30.6344C20.0696 29.526 19.3975 28.5187 18.55 27.67ZM84.58 75.91C83.7547 77.4114 82.7211 78.7883 81.51 80C79.3193 82.1869 76.5958 83.7643 73.6089 84.5764C70.6219 85.3884 67.4747 85.4071 64.4783 84.6305C61.4819 83.8538 58.74 82.3088 56.5235 80.1481C54.307 77.9874 52.6927 75.2857 51.84 72.31L37.73 105.39H87.73L84.58 75.91ZM79.42 57C76.6351 54.2155 72.8582 52.6511 68.92 52.6511C64.9818 52.6511 61.2048 54.2155 58.42 57C55.6352 59.7848 54.0707 63.5618 54.0707 67.5C54.0707 71.4383 55.6352 75.2153 58.42 78C61.2047 80.7848 64.9817 82.3493 68.92 82.3493C72.8582 82.3493 76.6352 80.7848 79.42 78C80.8023 76.6231 81.8992 74.9868 82.6477 73.1849C83.3961 71.3831 83.7814 69.4512 83.7814 67.5C83.7814 65.5489 83.3961 63.617 82.6477 61.8152C81.8992 60.0133 80.8023 58.377 79.42 57ZM33.42 107.21C30.9399 107.202 28.5574 108.175 26.7925 109.918C25.0276 111.66 24.0237 114.03 24 116.51V117.51H100.85V116.51C100.847 114.034 99.8624 111.66 98.1114 109.909C96.3604 108.158 93.9863 107.173 91.51 107.17L33.42 107.21Z" fill="black"/>
<path d="M90.49 9C91.0478 9 91.593 9.16539 92.0567 9.47526C92.5205 9.78512 92.8819 10.2255 93.0954 10.7408C93.3088 11.2561 93.3646 11.8231 93.2558 12.3702C93.147 12.9172 92.8784 13.4197 92.4841 13.814C92.0897 14.2084 91.5872 14.477 91.0402 14.5858C90.4931 14.6946 89.9261 14.6388 89.4109 14.4253C88.8956 14.2119 88.4551 13.8505 88.1453 13.3867C87.8354 12.923 87.67 12.3777 87.67 11.82C87.67 11.0721 87.9671 10.3548 88.496 9.82596C89.0248 9.29711 89.7421 9 90.49 9ZM11.64 30.54C12.3623 30.538 13.069 30.7504 13.6706 31.1503C14.2721 31.5501 14.7415 32.1195 15.0193 32.7863C15.2971 33.453 15.3708 34.1872 15.2311 34.8959C15.0914 35.6046 14.7446 36.2559 14.2345 36.7674C13.7244 37.2788 13.0741 37.6275 12.3658 37.7691C11.6575 37.9108 10.9231 37.8391 10.2555 37.5631C9.58801 37.2871 9.01736 36.8193 8.61585 36.2189C8.21434 35.6184 8.00002 34.9123 8.00001 34.19C7.9987 33.7112 8.09188 33.2367 8.27422 32.794C8.45656 32.3512 8.72447 31.9487 9.0626 31.6097C9.40074 31.2706 9.80245 31.0016 10.2447 30.818C10.687 30.6345 11.1612 30.54 11.64 30.54ZM68.49 59.56C70.0604 59.56 71.5955 60.0257 72.9012 60.8981C74.207 61.7706 75.2247 63.0107 75.8256 64.4615C76.4266 65.9123 76.5838 67.5088 76.2775 69.049C75.9711 70.5892 75.2149 72.004 74.1044 73.1144C72.994 74.2249 71.5792 74.9811 70.039 75.2874C68.4988 75.5938 66.9024 75.4366 65.4515 74.8356C64.0007 74.2346 62.7606 73.217 61.8881 71.9112C61.0157 70.6055 60.55 69.0704 60.55 67.5C60.5527 65.395 61.39 63.377 62.8785 61.8885C64.367 60.4 66.385 59.5626 68.49 59.56Z" fill="#DC2626"/>
</g>
<defs>
<clipPath id="clip0_403_46">
<rect width="120.86" height="122.88" fill="white"/>
</clipPath>
</defs>
</svg>
