<svg version="1.1" id="Layer_1" xmlns="http://www.w3.org/2000/svg" xmlns:xlink="http://www.w3.org/1999/xlink" x="0px" y="0px" viewBox="0 0 508 231" style="enable-background:new 0 0 508 231;" xml:space="preserve"> <style type="text/css"> .st0{fill:#54565A;} .st1{fill:#FFFFFF;} .st2{fill:#0071CE;} </style> <path class="st0" d="M431.3,149.1c0,3.2-2.5,6.1-6.1,6.1c-3.5,0-6-2.9-6-6.1c0-3.2,2.5-6.1,6.1-6.1 C428.8,143,431.3,145.9,431.3,149.1 M420.3,149.1c0,2.6,2,5.1,5,5.1c2.9,0,5-2.5,5-5.1c0-2.6-2-5.1-5-5.1 C422.4,144,420.3,146.4,420.3,149.1 M427.9,147.9c0,0.7-0.3,1.1-0.9,1.4c0.4,0.2,0.6,0.6,0.8,1.2l0.3,1.4h-1.7l-0.2-0.9 c-0.2-1-0.7-1-1.2-1h-0.3v1.9H423v-5.7h2.4C426.6,146.2,427.9,146.6,427.9,147.9 M424.7,147.6v1.1l0.8,0c0.5,0,0.8-0.2,0.8-0.6 c0-0.3-0.3-0.5-0.8-0.5H424.7z"/> <path class="st1" d="M171.2,124.9l23.5-0.1L171.2,124.9z"/> <path class="st2" d="M282,82.7c0,4.5-3.6,8.2-8.2,8.2c-4.5,0-8.1-3.6-8.1-8.2c0-4.5,3.6-8.2,8.1-8.2C278.3,74.6,282,78.2,282,82.7" /> <path class="st0" d="M193.7,125.2c0.7,0,1.3-0.5,1.4-1.2l2.1-12.2c0-0.1,0-0.2,0-0.3c0-0.8-0.7-1.5-1.5-1.5h-22.5 c-0.7,0-1.3,0.6-1.4,1.3h0l-2.1,12.2h0c0,0.1,0,0.2,0,0.3c0,0.8,0.7,1.5,1.5,1.5H193.7z"/> <path class="st0" d="M293.2,156.4C293.2,156.4,293.2,156.4,293.2,156.4c0.7,0,1.3-0.5,1.5-1.2l13.7-78.9h0c0-0.1,0-0.2,0-0.3 c0-0.8-0.7-1.5-1.5-1.5h-12.3v0c0,0,0,0,0,0h0c-0.7,0-1.3,0.5-1.4,1.2l-13.6,78.9h0c0,0.1,0,0.2,0,0.3c0,0.8,0.7,1.5,1.5,1.5 L293.2,156.4L293.2,156.4z"/> <path class="st0" d="M406.6,123.2c-2.1-0.7-4.4-1.1-6.6-1.6c-1.1-0.2-2.2-0.4-3.3-0.7c-3.2-0.7-5.6-1.8-7.6-3.4 c-1.8-1.5-2.4-3.5-1.6-5.8c0.7-2,2-3.2,4.2-4c3-1,5.9-1,8.6,0.3c1.6,0.7,2.7,2.2,3.2,4.2h0c0.2,0.7,0.7,1.2,1.4,1.3l11.5,0 c0.8,0,1.5-0.6,1.5-1.4c0-0.7-0.1-1.5-0.2-2.2c-0.9-4.8-3.4-8.4-7.3-10.8c-5.6-3.4-12.7-4.2-20-2.8c-9.3,1.8-14.3,6.4-16.9,14.1 c-0.7,2-0.9,4.3-0.6,6.3c0.5,3.4,2.5,6.2,6.2,8.8c3.7,2.6,8.3,4.3,14.3,5.3c2.2,0.3,4.9,1,7,3.1c0.7,0.7,2.7,2.7,1.5,5.5 c-0.9,2.1-2.4,3.6-4.5,4.5c-2.5,1.1-5.2,1.3-8,0.6c-3.5-0.9-4.6-4-4.9-6.1c-0.1-0.7-0.7-1.2-1.4-1.2h-11.6c-0.8,0-1.5,0.7-1.5,1.5 c0,1.9,0.3,4.8,1.2,6.6c2.8,6.3,8.3,9.9,16.9,10.9c3.6,0.4,7.1,0.2,10.6-0.6c6.2-1.5,10.9-4.4,14.2-8.9c2.9-3.9,4.1-8.5,3.3-13.3 C415.6,128.5,412.3,125.1,406.6,123.2"/> <path class="st0" d="M247.6,124.4l2.2-12c0-0.1,0-0.2,0-0.3c0-0.8-0.6-1.5-1.5-1.5l-24.4,0v0c-0.8,0-1.5-0.7-1.5-1.5 c0-0.1,0-0.1,0-0.2l3.2-18.3h0c0.1-0.7,0.7-1.2,1.4-1.2h27c0,0,0,0,0,0c0.7,0,1.3-0.5,1.5-1.2l2.1-11.9c0-0.1,0-0.2,0-0.3 c0-0.8-0.7-1.5-1.5-1.5v0l-42,0c-0.7,0-1.3,0.5-1.4,1.2l-13.6,78.9c0,0.1,0,0.1,0,0.2c0,0.8,0.7,1.5,1.5,1.5h12.3v0c0,0,0,0,0,0 c0.7,0,1.3-0.5,1.4-1.2l4.9-28.4c0.1-0.7,0.7-1.2,1.4-1.2l25.3,0C246.9,125.6,247.5,125.1,247.6,124.4"/> <path class="st2" d="M108.1,136.8c1.2,5.3,3.9,9.8,9.5,9.3c3.8-0.4,6.9-3.5,8.7-6.5l2.4-3.7l16.7-27.9c0.2-0.2,0.4-0.4,0.8-0.4 c0.5,0,1,0.4,1,0.9l-7.7,46.4c0,0.1,0,0.2,0,0.3c0,0.8,0.7,1.5,1.5,1.5h12.3v0c0,0,0,0,0,0c0.7,0,1.3-0.5,1.5-1.2l13.7-78.9 c0-0.1,0-0.2,0-0.3c0-0.8-0.7-1.5-1.5-1.5h-16.5c-0.5,0-1,0.3-1.3,0.7l-27.2,46.5l0,0c-0.3,0.4-0.7,0.7-1.3,0.7 c-0.7,0-1.3-0.5-1.4-1.2h0l-9.9-45.7c-0.1-0.7-0.7-1.2-1.4-1.2v0H91.3c-0.7,0-1.3,0.5-1.4,1.2h0l-13.6,78.9c0,0.1,0,0.2,0,0.2 c0,0.8,0.7,1.5,1.5,1.5H90v0c0,0,0,0,0,0c0.7,0,1.3-0.5,1.5-1.2l7.9-45.1c0.1-0.2,0.2-0.4,0.4-0.5c0.5-0.3,1.1-0.1,1.3,0.4 c0,0,0,0.1,0,0.1l5.5,21.2L108.1,136.8z"/> <path class="st0" d="M353.1,119c-0.6,0.9-1.7,1-2.8,1c0,0-22.7,0-24.4,0c-0.9,0-2,0-2.6-0.9c-0.5-0.9,0.1-2,0.6-2.9 c3.6-6.1,8.8-9.4,15.1-9.4c6.2-0.1,11,3.1,13.8,9.2C353.2,117,353.6,118.1,353.1,119 M366.1,123.8c0-5.6-1.1-10.5-3.4-14.9 c-2.3-4.4-5.4-7.7-9.5-10.1c-4.1-2.3-8.7-3.5-13.9-3.5c-5.9,0-11.3,1.6-16.4,4.8c-5.1,3.2-9,7.7-12,13.4c-1.8,3.5-2.8,6.6-3.3,10h0 c0,0,0,0,0,0c0,0.2,0,0.3-0.1,0.5c0,0.1,0,0.2,0,0.2c-0.2,1.6-0.3,3.3-0.3,5.1c0,0.3,0,0.6,0,0.9c0,0,0,0,0,0c0,0,0,0,0,0.1h0 c0,5,1.1,9.5,3.4,13.5c2.3,4,5.4,7.1,9.5,9.2c4.1,2.1,8.7,3.2,13.9,3.2c5.9,0,11.3-1.5,16.4-4.4c5.1-2.9,9-7,12-12.3 c0-0.1,0.1-0.2,0.1-0.3c0.1-0.2,0.2-0.4,0.2-0.6c0-0.8-0.7-1.5-1.5-1.5h-13.5c-0.5,0-0.9,0.2-1.1,0.5h0c-0.9,1-1.8,1.9-3,2.8 c-2.6,2.2-5.5,3.3-8.7,3.3c-3.6,0-7.4-1.3-9.7-4c-2-2.4-3.3-5-3.5-8.1c0-0.8,0.7-1.4,1.5-1.4h41.4c0.7,0,1.3-0.6,1.4-1.3 c0.2-1.5,0.2-3.1,0.2-4.8h0C366.1,124.1,366.1,124,366.1,123.8"/> <path class="st0" d="M278.8,97.4c0.1-0.8-0.9-1.1-1.5-0.7c0,0,0,0-0.1,0c-7.1,4-11.8-0.6-11.8-0.6c-0.1-0.1-0.3-0.2-0.4-0.3 c-0.5-0.4-1.3-0.1-1.3,0.6l-10.2,58.1l0,0.1c0,0,0,0,0,0l0,0.1h0c0,0,0,0.1,0,0.1c0,0.8,0.7,1.5,1.5,1.5h12.3v0c0,0,0,0,0,0 c1.3,0,1.5-1.2,1.5-1.2L278.8,97.4z"/> </svg>