<?xml version="1.0" encoding="utf-8"?>
<!-- Generator: Adobe Illustrator 26.0.3, SVG Export Plug-In . SVG Version: 6.00 Build 0)  -->
<svg version="1.1" id="Calque_1" xmlns="http://www.w3.org/2000/svg" xmlns:xlink="http://www.w3.org/1999/xlink" x="0px" y="0px"
	 viewBox="0 0 191.1 30" style="enable-background:new 0 0 191.1 30;" xml:space="preserve">
<style type="text/css">
	.st0{fill:#000000;}
</style>
<g id="Layer_2">
	<g id="OG_Type">
		<path class="st0" d="M57.8,15.7c0.1,4.7-3.7,8.6-8.4,8.7s-8.6-3.7-8.7-8.4s3.7-8.6,8.4-8.7c0,0,0.1,0,0.1,0
			c4.6-0.1,8.5,3.6,8.6,8.2C57.8,15.6,57.8,15.6,57.8,15.7z M53.9,15.7c0.1-2.5-1.9-4.7-4.4-4.8c-2.5-0.1-4.7,1.9-4.8,4.4
			c0,0.1,0,0.3,0,0.4c-0.1,2.5,1.9,4.7,4.5,4.7c2.5,0.1,4.7-1.9,4.7-4.5C53.9,15.9,53.9,15.8,53.9,15.7z"/>
		<path class="st0" d="M72.6,17.7c0,3.8-2.7,6.4-5.9,6.4c-1.4,0-2.7-0.4-3.7-1.3v1h-3.8V6.4H63v6.2c1-0.9,2.4-1.4,3.7-1.3
			C69.9,11.3,72.6,13.9,72.6,17.7z M68.8,17.7c0.1-1.6-1.1-3-2.7-3.1c-0.1,0-0.2,0-0.2,0c-1.7,0-3,1.4-3,3.1c0,0,0,0,0,0.1
			c-0.1,1.7,1.2,3,2.9,3.1c0,0,0.1,0,0.1,0c1.6,0,2.9-1.3,2.9-2.9C68.8,17.9,68.8,17.8,68.8,17.7z"/>
		<path class="st0" d="M72.3,24.5c0.3,0.1,0.6,0.2,1,0.2c0.5,0,1-0.3,1-0.9c0,0,0-0.1,0-0.1V11.7H78v12.5c0.1,2-1.4,3.7-3.4,3.9
			c-0.2,0-0.3,0-0.5,0c-0.9,0-1.7-0.2-2.5-0.5L72.3,24.5z M78.3,8.1c0,1.2-1.1,2.2-2.3,2.1c-1.2,0-2.1-1-2.1-2.1
			c0-1.2,1-2.2,2.3-2.2C77.3,6,78.3,6.9,78.3,8.1z"/>
		<path class="st0" d="M92,18.7h-8.8c0.2,1.5,1.7,2.5,3.2,2.3c0.8-0.1,1.5-0.6,2-1.4l3.4,0.7c-1,2.4-3.4,3.9-6,3.8
			c-3.4,0.1-6.3-2.6-6.4-6.1c0-0.1,0-0.2,0-0.3c-0.1-3.4,2.6-6.3,6.1-6.4c0.1,0,0.2,0,0.3,0c3.4-0.1,6.2,2.6,6.2,6
			c0,0.1,0,0.3,0,0.4L92,18.7z M83.3,16.3h5c-0.2-1.1-1.3-1.9-2.4-1.9C84.6,14.4,83.6,15.2,83.3,16.3z"/>
		<path class="st0" d="M101.9,18.6l3.5,0.8c-0.6,2.8-3.2,4.8-6.1,4.7c-3.5,0.1-6.5-2.7-6.6-6.2c-0.1-3.5,2.7-6.5,6.2-6.6
			c0.1,0,0.3,0,0.4,0c2.9-0.1,5.4,1.8,6.1,4.6l-3.6,0.9c-0.2-1.3-1.3-2.2-2.5-2.1c-1.6,0-2.9,1.2-2.9,2.8c0,0.1,0,0.2,0,0.3
			c-0.1,1.5,1,2.9,2.6,3c0.1,0,0.2,0,0.3,0C100.6,20.8,101.7,19.9,101.9,18.6z"/>
		<path class="st0" d="M116,23.2c-1,0.6-2.1,0.9-3.3,0.9c-3,0-4.8-1.6-4.8-4.8v-4.6h-2.2v-3h2.2V8.1h3.8v3.6h3.6v3h-3.6v4.2
			c0,1.2,0.6,1.8,1.6,1.8c0.6,0,1.2-0.2,1.8-0.5L116,23.2z"/>
		<path class="st0" d="M121.7,8.1c0,1.2-1.1,2.2-2.3,2.1c-1.2,0-2.1-1-2.1-2.1c0-1.2,1-2.2,2.3-2.2C120.7,6,121.6,6.9,121.7,8.1z
			 M117.5,23.7v-12h3.8v12H117.5z"/>
		<path class="st0" d="M131.9,11.7v3h-3.3v9h-3.8v-9H123v-3h1.7v-0.9c0-2.8,1.9-4.6,4.8-4.6c0.8,0,1.6,0.2,2.4,0.5l-0.8,3
			c-0.3-0.1-0.7-0.2-1-0.2c-0.8-0.1-1.5,0.5-1.6,1.3c0,0.1,0,0.1,0,0.2v0.8L131.9,11.7z"/>
		<path class="st0" d="M149.6,23.7h-11.9V7.6h4v12.6h7.9L149.6,23.7z"/>
		<path class="st0" d="M162.9,23.7h-3.8v-1.2c-1,1-2.3,1.5-3.7,1.5c-2.8,0-4.7-2-4.7-5v-7.4h3.8v6.6c-0.1,1.2,0.7,2.2,1.9,2.4
			c0.1,0,0.1,0,0.2,0c1.5,0,2.5-1,2.5-3.4v-5.6h3.8V23.7z"/>
		<path class="st0" d="M177.3,16.3v7.4h-3.8v-6.6c0.1-1.2-0.7-2.2-1.9-2.4c-0.1,0-0.1,0-0.2,0c-1.5,0-2.5,1-2.5,3.4v5.6h-3.8v-12
			h3.8v1.2c1-1,2.3-1.5,3.7-1.5C175.4,11.3,177.3,13.3,177.3,16.3z"/>
		<path class="st0" d="M191.1,18.7h-8.8c0.2,1.5,1.7,2.5,3.2,2.3c0.8-0.1,1.5-0.6,2-1.4l3.4,0.7c-1,2.4-3.4,3.9-6,3.8
			c-3.4,0.1-6.3-2.6-6.4-6.1c0-0.1,0-0.2,0-0.3c-0.1-3.4,2.6-6.3,6.1-6.4c0.1,0,0.2,0,0.3,0c3.4-0.1,6.2,2.6,6.2,6
			c0,0.1,0,0.3,0,0.4L191.1,18.7z M182.4,16.3h5c-0.2-1.1-1.3-1.9-2.4-1.9C183.7,14.4,182.7,15.2,182.4,16.3z"/>
		<path class="st0" d="M15,0C6.7,0,0,6.7,0,15s6.7,15,15,15s15-6.7,15-15S23.3,0,15,0z M20.6,16.5c0,3.5-2.2,5.7-5.6,5.7
			c-2.9,0.2-5.5-2-5.7-5c0-0.3,0-0.5,0-0.8v-5l3.7-1v6c0,1.5,0.8,2.4,2,2.4c1.1,0,1.8-0.9,1.8-2.4V9.4l3.7-1V16.5z"/>
	</g>
</g>
</svg>
