<?xml version="1.0"?>
<svg xmlns="http://www.w3.org/2000/svg" version="1.1" width="2500" height="1517"><svg id="b3cbc9bf-3928-4b8f-ac6b-e7ad0757f01e" data-name="Ebene 1" viewBox="0 0 201.3 122.6" x="0" y="0" width="2500" height="1517">
  <title>SER_Group</title>
  <path d="M403.1,289.4l-.4-.9c-1.7-3.8-4-5.4-8.2-5.6a16,16,0,0,0-4.9.5c-2.1.7-3.3,1.7-3.6,4-.5,3.9,2.9,4.9,5.9,5.7l2,.5,3,.6,2.4.6,2.2.6,1.9.5,1.6.6,1.4.6c12.2,6.1,12.3,23-.4,29.7a30.44,30.44,0,0,1-15.5,2.8,39.38,39.38,0,0,1-6-.8l-1.7-.6-1.7-.7a21.86,21.86,0,0,1-3-1.6,26.06,26.06,0,0,1-3.1-2.7l-1.6-2.1-.5-.8-.8-1.5-.4-.8-.7-1.7-.3-.9-.3-1,11.9-2.7.3.9c3.1,9.7,20.5,8.8,19.7.3-.4-2.3-1.8-3.2-4.1-4.1l-1.9-.6-6.2-1.5-2.4-.6-2.2-.7-1.9-.7c-3.8-1.5-7.9-4.1-9.3-8.2a17.39,17.39,0,0,1-1-8.2c1.8-18.6,31.1-20.9,39.1-5.7l.8,1.5.7,1.6-10.8,3.7Z" transform="translate(-316 -235.2)" style="fill: #878787"/>
  <polygon points="121.1 48.9 121.1 60.2 141.8 60.2 141.8 70.5 121.1 70.5 121.1 82.6 147.4 82.6 147.4 93.5 108 93.5 108 38.3 147.4 38.3 147.4 48.9 121.1 48.9" style="fill: #878787"/>
  <path d="M485.3,328.7h-13V273.5h24.2l2.5.1c20.3.7,22.7,22.9,9.2,30.2l-1.1.6,10.1,24.3H503l-8.4-21.9h-9.3v21.9Zm0-31.3h10.5l1.1-.1.8-.1.8-.2c6.2-1.6,6.9-12-.3-13.4l-.9-.2-1.1-.1H485.4v14.1Z" transform="translate(-316 -235.2)" style="fill: #878787"/>
  <path d="M410.5,352c-53-3-94.5-28-94.5-58.3,0-32.2,47.2-58.5,105.1-58.5,35.5,0,66.8,9.8,85.9,24.8-17.3-7.9-39.7-12.6-64-12.6-54.7,0-99.4,24.1-99.4,53.7-.1,23.5,28,43.6,66.9,50.9Z" transform="translate(-316 -235.2)" style="fill: #0070ba"/>
  <g>
    <path d="M430.3,357.8c-3.5,0-5.7-2.8-5.7-6.9s2.2-6.9,5.7-6.9a4.72,4.72,0,0,1,4.5,2.5l-1.8,1.1a2.91,2.91,0,0,0-2.8-1.6c-2.3,0-3.6,1.9-3.6,4.9s1.3,4.9,3.6,4.9a2.73,2.73,0,0,0,3-3v-.1H431v-1.9h4.2v1.5C435.4,355.8,433.3,357.8,430.3,357.8Z" transform="translate(-316 -235.2)" style="fill: #878787"/>
    <path d="M452.8,352.1l2.7,5.5h-2.3l-2.7-5.3h-3v5.3h-2V344.2h5.9c2.3,0,4.3,1.2,4.3,4A3.59,3.59,0,0,1,452.8,352.1Zm-1.4-6h-3.9v4.3h3.9a2.05,2.05,0,0,0,2.3-2.1A2.08,2.08,0,0,0,451.4,346.1Z" transform="translate(-316 -235.2)" style="fill: #878787"/>
  </g>
  <g>
    <path d="M470.8,357.8c-3.5,0-5.7-2.8-5.7-6.9s2.2-6.9,5.7-6.9,5.7,2.8,5.7,6.9S474.3,357.8,470.8,357.8Zm0-11.8c-2.3,0-3.6,1.9-3.6,4.9s1.3,4.9,3.6,4.9,3.6-1.9,3.6-4.9S473.1,346,470.8,346Z" transform="translate(-316 -235.2)" style="fill: #878787"/>
    <path d="M491.6,357.8c-3.3,0-5-2.1-5-5.8v-7.8h2v7.7c0,2.5,1.1,3.9,3.1,3.9s3.1-1.3,3.1-3.7v-7.8h2v7.8C496.7,355.8,494.9,357.8,491.6,357.8Z" transform="translate(-316 -235.2)" style="fill: #878787"/>
    <path d="M512.9,352.6h-3.5v5h-2V344.2H513c2.5,0,4.3,1.4,4.3,4.2S515.5,352.6,512.9,352.6Zm.1-6.5h-3.6v4.6H513a2.3,2.3,0,1,0,0-4.6Z" transform="translate(-316 -235.2)" style="fill: #878787"/>
  </g>
</svg></svg>
