<svg width="512" height="294" viewBox="0 0 512 294" fill="none" xmlns="http://www.w3.org/2000/svg">
<g clip-path="url(#clip0_403_42)">
<path fill-rule="evenodd" clip-rule="evenodd" d="M12.9299 267.59H60.6899C59.1299 265.97 58.1599 263.78 58.1599 261.37V8.97C58.1599 4.04 62.1999 0 67.1299 0H442.51C447.44 0 451.48 4.04 451.48 8.97V261.37C451.48 263.78 450.51 265.97 448.95 267.59H499.07C502.63 267.59 505.87 269.04 508.21 271.38C509.411 272.579 510.365 274.002 511.015 275.57C511.666 277.137 512 278.818 512 280.515C512 282.212 511.666 283.893 511.015 285.46C510.365 287.028 509.411 288.451 508.21 289.65C505.87 291.99 502.63 293.45 499.07 293.45H12.9299C9.36993 293.45 6.12993 291.99 3.78993 289.65C2.58841 288.451 1.63515 287.028 0.984729 285.46C0.334309 283.893 -0.000488281 282.212 -0.000488281 280.515C-0.000488281 278.818 0.334309 277.137 0.984729 275.57C1.63515 274.002 2.58841 272.579 3.78993 271.38C6.12993 269.04 9.36993 267.59 12.9299 267.59ZM324.91 79.19C324.91 74.88 326.15 70.89 328.27 67.48H365.97C368.09 70.86 369.32 74.88 369.32 79.19C369.32 91.45 359.38 101.4 347.12 101.4C334.86 101.4 324.91 91.45 324.91 79.19ZM411.2 80.03V84.68C411.2 89.03 407.65 92.59 403.3 92.59H395.2C394.185 97.0907 392.542 101.426 390.32 105.47L395.72 110.87C398.79 113.95 398.79 118.98 395.72 122.05L389.14 128.64C386.07 131.71 381.04 131.71 377.96 128.64L373.04 123.71C368.94 126.26 364.45 128.22 359.68 129.49V136.21C359.68 140.56 356.11 144.12 351.77 144.12H342.47C338.12 144.12 334.56 140.56 334.56 136.21V129.58C329.799 128.354 325.249 126.422 321.06 123.85L316.27 128.64C313.2 131.71 308.16 131.71 305.09 128.64L298.51 122.06C295.44 118.98 295.44 113.95 298.51 110.87L303.69 105.7C301.402 101.592 299.715 97.1769 298.68 92.59H290.94C286.59 92.59 283.03 89.03 283.03 84.68V75.38C283.03 71.16 286.39 67.68 290.56 67.48H317.04C315.8 70.88 315.13 74.55 315.13 78.38C315.13 78.94 315.14 79.49 315.17 80.03C315.14 80.58 315.13 81.13 315.13 81.68C315.13 99.25 329.37 113.5 346.94 113.5C364.51 113.5 378.76 99.25 378.76 81.68C378.76 81.13 378.75 80.58 378.71 80.03C378.75 79.49 378.76 78.94 378.76 78.38C378.76 74.55 378.08 70.88 376.84 67.48H403.67C407.85 67.68 411.2 71.16 411.2 75.38V80.03ZM437.43 37.28H73.4899V256.7H437.43V37.28ZM117.67 14.45C120.66 14.45 123.07 16.87 123.07 19.85C123.07 22.83 120.66 25.25 117.67 25.25C114.69 25.25 112.27 22.83 112.27 19.85C112.27 16.87 114.69 14.45 117.67 14.45ZM98.7999 14.45C101.78 14.45 104.19 16.87 104.19 19.85C104.19 22.83 101.78 25.25 98.7999 25.25C95.8099 25.25 93.3899 22.83 93.3899 19.85C93.3899 16.87 95.8099 14.45 98.7999 14.45ZM79.9199 14.45C82.8999 14.45 85.3199 16.87 85.3199 19.85C85.3199 22.83 82.8999 25.25 79.9199 25.25C76.9299 25.25 74.5199 22.83 74.5199 19.85C74.5199 16.87 76.9299 14.45 79.9199 14.45ZM241.27 273.96H270.73C273.49 273.96 275.75 276.22 275.75 278.98C275.75 281.74 273.49 284 270.73 284H241.27C238.51 284 236.25 281.74 236.25 278.98C236.25 276.22 238.51 273.96 241.27 273.96Z" fill="black"/>
<path fill-rule="evenodd" clip-rule="evenodd" d="M340.58 180.25C341.25 177.34 344.17 175.53 347.08 176.2C349.99 176.88 351.8 179.79 351.13 182.71L340.54 228.05C340.214 229.448 339.346 230.658 338.127 231.416C336.908 232.174 335.438 232.416 334.04 232.09C333.347 231.93 332.692 231.635 332.113 231.222C331.534 230.808 331.042 230.285 330.666 229.681C330.289 229.077 330.036 228.405 329.92 227.703C329.804 227.001 329.828 226.283 329.99 225.59L340.58 180.25ZM99.37 81.74C95.85 81.74 93 78.89 93 75.37C93 71.86 95.85 69 99.37 69H259.83C263.34 69 266.19 71.86 266.19 75.37C266.19 78.89 263.34 81.74 259.83 81.74H99.37ZM99.37 122.31C95.85 122.31 93 119.45 93 115.94C93 112.42 95.85 109.57 99.37 109.57H247.94C251.45 109.57 254.3 112.42 254.3 115.94C254.3 119.45 251.45 122.31 247.94 122.31H99.37ZM99.37 203.44C95.85 203.44 93 200.59 93 197.07C93 193.55 95.85 190.7 99.37 190.7H204C207.51 190.7 210.37 193.55 210.37 197.07C210.37 200.59 207.51 203.44 204 203.44H99.37ZM99.37 162.87C97.6819 162.87 96.0629 162.199 94.8693 161.006C93.6756 159.812 93.005 158.193 93.005 156.505C93.005 154.817 93.6756 153.198 94.8693 152.004C96.0629 150.811 97.6819 150.14 99.37 150.14H214.34C216.028 150.14 217.647 150.811 218.841 152.004C220.034 153.198 220.705 154.817 220.705 156.505C220.705 158.193 220.034 159.812 218.841 161.006C217.647 162.199 216.028 162.87 214.34 162.87H99.37ZM322.52 216.31C324.76 218.28 324.99 221.7 323.03 223.94C322.085 225.018 320.751 225.678 319.321 225.773C317.89 225.869 316.48 225.393 315.4 224.45L296.87 208.22C294.63 206.25 294.4 202.83 296.36 200.59L296.89 200.06L315.4 183.85C317.64 181.88 321.06 182.11 323.03 184.36C324.99 186.6 324.76 190.02 322.52 191.99L308.64 204.15L322.52 216.31ZM366.97 224.45C365.89 225.393 364.48 225.869 363.05 225.773C361.619 225.678 360.285 225.018 359.34 223.94C357.38 221.7 357.61 218.28 359.85 216.31L373.73 204.15L359.85 191.99C357.61 190.02 357.38 186.6 359.34 184.36C361.31 182.11 364.73 181.88 366.97 183.85L385.48 200.06L386.01 200.59C387.97 202.83 387.74 206.25 385.49 208.22L366.97 224.45Z" fill="#DC2626"/>
</g>
<defs>
<clipPath id="clip0_403_42">
<rect width="512" height="293.45" fill="white"/>
</clipPath>
</defs>
</svg>
